<svg  viewBox="0 0 300 300" fill="none" xmlns="http://www.w3.org/2000/svg">
<rect width="300" height="300" fill="#FFDD00"/>
<path d="M215.457 85.9722L215.293 85.8754L214.912 85.7593C215.065 85.8886 215.257 85.9635 215.457 85.9722Z" fill="#0D0C22"/>
<path d="M217.856 103.104L217.672 103.156L217.856 103.104Z" fill="#0D0C22"/>
<path d="M215.529 85.9457C215.505 85.9428 215.482 85.9373 215.46 85.9294C215.459 85.9446 215.459 85.9599 215.46 85.9751C215.485 85.9718 215.509 85.9617 215.529 85.9457Z" fill="#0D0C22"/>
<path d="M215.459 85.9745H215.484V85.959L215.459 85.9745Z" fill="#0D0C22"/>
<path d="M217.707 103.074L217.985 102.915L218.088 102.857L218.182 102.757C218.006 102.833 217.845 102.94 217.707 103.074Z" fill="#0D0C22"/>
<path d="M215.938 86.3468L215.666 86.0886L215.482 85.9885C215.581 86.163 215.745 86.2916 215.938 86.3468Z" fill="#0D0C22"/>
<path d="M147.755 252.596C147.538 252.69 147.349 252.837 147.203 253.022L147.374 252.913C147.49 252.806 147.655 252.68 147.755 252.596Z" fill="#0D0C22"/>
<path d="M187.347 244.807C187.347 244.561 187.227 244.607 187.257 245.478C187.257 245.407 187.286 245.336 187.298 245.268C187.315 245.113 187.327 244.961 187.347 244.807Z" fill="#0D0C22"/>
<path d="M183.241 252.596C183.025 252.69 182.835 252.837 182.689 253.022L182.86 252.913C182.977 252.806 183.141 252.68 183.241 252.596Z" fill="#0D0C22"/>
<path d="M119.87 254.449C119.705 254.306 119.504 254.212 119.289 254.178C119.463 254.262 119.638 254.346 119.754 254.41L119.87 254.449Z" fill="#0D0C22"/>
<path d="M113.594 248.44C113.569 248.186 113.491 247.94 113.365 247.717C113.454 247.949 113.528 248.186 113.588 248.427L113.594 248.44Z" fill="#0D0C22"/>
<path d="M156.902 141.883C146.611 145.882 134.933 150.417 119.797 150.417C113.465 150.406 107.164 149.617 101.064 148.073L111.533 245.639C111.903 249.717 113.95 253.52 117.266 256.291C120.582 259.063 124.925 260.601 129.432 260.601C129.432 260.601 144.276 261.3 149.228 261.3C154.559 261.3 170.543 260.601 170.543 260.601C175.05 260.6 179.392 259.062 182.707 256.29C186.022 253.519 188.068 249.717 188.439 245.639L199.651 137.824C194.64 136.271 189.583 135.239 183.883 135.239C174.023 135.235 166.08 138.318 156.902 141.883Z" fill="white"/>
<path d="M81.8789 102.587L82.0275 102.726L82.1244 102.784C82.0498 102.71 81.9675 102.644 81.8789 102.587Z" fill="#0D0C22"/>
<path d="M232.044 94.2842L230.724 87.6285C229.54 81.6568 226.853 76.0141 220.723 73.8558C218.758 73.1654 216.529 72.8686 215.022 71.4394C213.516 70.0102 213.07 67.7905 212.722 65.7322C212.077 61.9543 211.47 58.1732 210.809 54.4018C210.238 51.1594 209.786 47.5171 208.299 44.5425C206.363 40.5484 202.347 38.2127 198.353 36.6673C196.306 35.9033 194.217 35.257 192.097 34.7316C182.118 32.099 171.627 31.1311 161.361 30.5795C149.039 29.8995 136.684 30.1044 124.392 31.1924C115.242 32.0248 105.606 33.0314 96.9109 36.1963C93.7331 37.3545 90.4585 38.745 88.042 41.2001C85.0772 44.2166 84.1093 48.8817 86.2741 52.6435C87.813 55.3148 90.4198 57.2021 93.1846 58.4507C96.786 60.0594 100.547 61.2835 104.405 62.1027C115.149 64.4772 126.276 65.4096 137.251 65.8064C149.416 66.2974 161.601 65.8995 173.708 64.616C176.701 64.2869 179.69 63.8922 182.673 63.4319C186.187 62.8932 188.442 58.299 187.406 55.0986C186.167 51.2724 182.838 49.7883 179.073 50.3658C178.518 50.4529 177.966 50.5336 177.411 50.6142L177.011 50.6723C175.736 50.8336 174.46 50.9842 173.185 51.124C170.55 51.4079 167.909 51.6401 165.261 51.8208C159.332 52.2338 153.386 52.4241 147.443 52.4338C141.604 52.4338 135.761 52.2693 129.934 51.8853C127.276 51.7111 124.624 51.4896 121.979 51.2207C120.775 51.0949 119.575 50.9626 118.375 50.8142L117.233 50.6691L116.984 50.6336L115.8 50.4626C113.381 50.098 110.961 49.6786 108.567 49.1721C108.326 49.1185 108.11 48.9841 107.955 48.7911C107.8 48.5981 107.715 48.3581 107.715 48.1107C107.715 47.8632 107.8 47.6232 107.955 47.4302C108.11 47.2372 108.326 47.1028 108.567 47.0493H108.612C110.687 46.6073 112.777 46.2298 114.874 45.9007C115.573 45.791 116.275 45.6835 116.978 45.5781H116.997C118.31 45.491 119.63 45.2555 120.936 45.1006C132.305 43.9182 143.74 43.515 155.163 43.894C160.709 44.0553 166.252 44.3812 171.772 44.9425C172.959 45.0651 174.14 45.1942 175.321 45.3394C175.772 45.3942 176.227 45.4587 176.682 45.5136L177.598 45.6458C180.27 46.0437 182.927 46.5266 185.57 47.0944C189.487 47.9461 194.517 48.2236 196.259 52.5144C196.814 53.8759 197.065 55.389 197.372 56.8182L197.762 58.641C197.772 58.6737 197.78 58.7071 197.785 58.741C198.707 63.0426 199.631 67.3442 200.556 71.6459C200.624 71.9636 200.625 72.292 200.561 72.6104C200.496 72.9288 200.366 73.2305 200.18 73.4965C199.993 73.7626 199.754 73.9874 199.477 74.1569C199.2 74.3264 198.891 74.437 198.569 74.4817H198.543L197.978 74.5591L197.42 74.6333C195.652 74.8635 193.882 75.0785 192.11 75.2786C188.619 75.6765 185.123 76.0206 181.621 76.311C174.664 76.8895 167.692 77.2691 160.706 77.4498C157.146 77.5444 153.588 77.5885 150.03 77.5821C135.871 77.5709 121.723 76.748 107.657 75.1173C106.135 74.9366 104.612 74.743 103.089 74.5462C104.27 74.6979 102.231 74.4301 101.818 74.372C100.85 74.2365 99.8822 74.0956 98.9144 73.9494C95.6656 73.4622 92.4361 72.8621 89.1938 72.3363C85.274 71.691 81.5251 72.0137 77.9795 73.9494C75.0691 75.542 72.7135 77.9842 71.227 80.9503C69.6978 84.1119 69.2429 87.5543 68.559 90.9515C67.875 94.3487 66.8104 98.004 67.2136 101.492C68.0815 109.018 73.3434 115.135 80.9121 116.503C88.0324 117.794 95.1913 118.839 102.37 119.729C130.568 123.183 159.055 123.596 187.341 120.962C189.645 120.747 191.945 120.512 194.242 120.258C194.96 120.18 195.686 120.262 196.367 120.5C197.049 120.738 197.668 121.126 198.18 121.634C198.693 122.143 199.085 122.76 199.328 123.439C199.571 124.119 199.659 124.844 199.585 125.562L198.869 132.524C197.426 146.593 195.982 160.66 194.539 174.726C193.034 189.498 191.518 204.269 189.993 219.038C189.563 223.198 189.133 227.357 188.703 231.514C188.29 235.608 188.232 239.831 187.454 243.877C186.228 250.239 181.921 254.146 175.637 255.575C169.879 256.886 163.997 257.573 158.093 257.627C151.547 257.663 145.004 257.372 138.458 257.408C131.47 257.446 122.911 256.801 117.517 251.601C112.777 247.032 112.122 239.88 111.477 233.695C110.617 225.507 109.764 217.32 108.919 209.134L104.176 163.615L101.108 134.163C101.057 133.676 101.005 133.195 100.957 132.705C100.589 129.192 98.1014 125.753 94.1815 125.93C90.8263 126.078 87.0129 128.93 87.4065 132.705L89.681 154.54L94.3848 199.707C95.7247 212.537 97.0614 225.368 98.3949 238.202C98.653 240.66 98.895 243.125 99.166 245.584C100.64 259.018 110.9 266.257 123.605 268.296C131.025 269.49 138.626 269.735 146.156 269.858C155.809 270.012 165.558 270.384 175.053 268.635C189.122 266.054 199.679 256.659 201.185 242.086C201.615 237.879 202.045 233.671 202.476 229.462C203.906 215.542 205.334 201.621 206.76 187.699L211.425 142.209L213.564 121.362C213.671 120.328 214.107 119.356 214.809 118.59C215.511 117.823 216.441 117.303 217.461 117.106C221.484 116.322 225.33 114.984 228.192 111.922C232.747 107.047 233.654 100.691 232.044 94.2842ZM80.7056 98.7815C80.7669 98.7525 80.654 99.2783 80.6056 99.5235C80.596 99.1525 80.6153 98.8234 80.7056 98.7815ZM81.096 101.801C81.1283 101.779 81.2251 101.908 81.3251 102.063C81.1734 101.921 81.0767 101.814 81.0928 101.801H81.096ZM81.4799 102.308C81.6187 102.543 81.6929 102.692 81.4799 102.308V102.308ZM82.251 102.934H82.2703C82.2703 102.956 82.3058 102.979 82.3187 103.001C82.2974 102.977 82.2736 102.954 82.2478 102.934H82.251ZM217.274 101.998C215.829 103.372 213.651 104.011 211.499 104.331C187.367 107.912 162.884 109.725 138.487 108.925C121.027 108.328 103.75 106.389 86.4644 103.947C84.7707 103.708 82.9349 103.398 81.7703 102.15C79.5765 99.7945 80.654 95.052 81.2251 92.2065C81.7477 89.5997 82.7478 86.1251 85.8482 85.7541C90.6875 85.1863 96.3076 87.2285 101.095 87.9543C106.859 88.834 112.645 89.5384 118.452 90.0675C143.236 92.3259 168.436 91.9742 193.11 88.6706C197.607 88.0662 202.088 87.364 206.554 86.5639C210.531 85.8509 214.942 84.512 217.345 88.6319C218.994 91.4387 219.213 95.194 218.958 98.3653C218.88 99.7471 218.276 101.047 217.271 101.998H217.274Z" fill="#0D0C22"/>
</svg>
