<svg width="33" height="36" viewBox="0 0 33 36" fill="none" xmlns="http://www.w3.org/2000/svg">
<path fill-rule="evenodd" clip-rule="evenodd" d="M26.0659 23.848C25.841 24.0479 25.5661 24.1479 25.2662 24.1229C25.3912 24.4977 25.2912 24.9226 25.0163 25.1975C24.7414 25.4724 24.3166 25.5724 23.9417 25.4224C23.9167 25.7223 23.7168 25.9972 23.4419 26.1222C23.142 26.2471 22.7921 26.1971 22.5422 25.9972C22.4172 26.2721 22.1173 26.4471 21.8174 26.4221C21.8174 26.597 21.7674 26.747 21.6675 26.8969C21.3426 27.6217 20.5179 27.9715 19.7681 27.6716C19.7931 28.3464 19.2683 28.9212 18.5686 28.9462C18.2437 28.9462 17.9188 28.8462 17.6689 28.5963C17.4939 28.9962 17.144 29.2461 16.7192 29.2711C16.2943 29.2961 15.8945 29.0712 15.6946 28.6963C15.4446 29.0212 15.0448 29.1711 14.6449 29.0712C14.2451 28.9712 13.9452 28.6463 13.8702 28.2714C13.5703 28.3964 13.2454 28.3714 12.9955 28.1715C12.7456 27.9715 12.6206 27.6716 12.6706 27.3467L12.3457 27.3218C11.9958 27.2218 11.7959 26.8469 11.8709 26.497C11.646 26.722 11.3711 26.8219 11.0462 26.8469C10.2215 26.9219 9.52169 26.3471 9.44672 25.5724C9.02187 25.8223 8.49705 25.7723 8.09719 25.4724C7.69733 25.1725 7.52239 24.6727 7.64735 24.1978C7.04755 24.2728 6.49774 23.823 6.44776 23.2232C6.42277 22.9733 6.49774 22.6984 6.6227 22.4984C6.07289 22.4235 5.67303 21.8986 5.748 21.3488C5.773 21.0989 5.92294 20.849 6.12287 20.6991C5.87296 20.4991 5.748 20.1992 5.79799 19.8743C5.84797 19.5495 6.07289 19.2995 6.37279 19.1996C6.14787 18.9247 6.17286 18.4998 6.42277 18.2499H6.44776C6.27282 18.1499 6.12287 18.025 5.99792 17.85C5.52308 17.2003 5.64804 16.3006 6.27282 15.8008C5.84797 15.5508 5.59806 15.076 5.67303 14.6012C5.72301 14.1014 6.07289 13.7015 6.54773 13.5515C6.29781 13.2017 6.27282 12.7518 6.47275 12.377C6.67268 12.0021 7.09754 11.7772 7.52239 11.8271C7.37244 11.4523 7.4724 11.0274 7.74731 10.7525C8.02221 10.4776 8.44707 10.3776 8.82194 10.5276C8.84693 10.2277 9.04686 9.95279 9.34676 9.82784C9.64665 9.70288 9.97154 9.75286 10.2215 9.95279C10.3464 9.6529 10.6463 9.47796 10.9462 9.50295L10.9712 9.57792C10.9712 9.10309 11.2211 8.65324 11.621 8.37834C12.0208 8.10344 12.5207 8.05345 12.9705 8.22839L13.0455 7.80354C13.1704 7.40368 13.5203 7.10378 13.9202 7.00382C14.32 6.90385 14.7449 7.02881 15.0698 7.30371C15.2197 6.90385 15.5946 6.62895 16.0444 6.60396C16.4693 6.57897 16.8691 6.80389 17.0691 7.20375C17.319 6.87886 17.7188 6.72891 18.1187 6.82888C18.5186 6.92884 18.8185 7.25373 18.8934 7.6286C19.1933 7.50364 19.5182 7.55363 19.7681 7.75356C20.018 7.95349 20.143 8.27838 20.068 8.57827C20.4429 8.5033 20.8178 8.75321 20.8927 9.12808C20.9177 9.22804 20.9177 9.30302 20.8927 9.40298C21.1177 9.17806 21.3926 9.0781 21.7175 9.02811C22.5422 8.97813 23.2169 9.55293 23.2919 10.3277C23.7168 10.0778 24.2666 10.1027 24.6664 10.4026C25.0663 10.7025 25.2412 11.2274 25.1163 11.7022C25.7161 11.6272 26.2659 12.0771 26.3159 12.6768C26.3409 12.9268 26.2659 13.2017 26.1409 13.4016C26.5408 13.4766 26.8657 13.7515 26.9656 14.1513C27.0656 14.5512 26.9406 14.9511 26.6158 15.201C26.7907 15.3259 26.9157 15.5259 26.9656 15.7258C27.0156 16.1506 26.7907 16.5505 26.3908 16.7254C26.6158 17.0003 26.5908 17.4252 26.3409 17.6751C26.7657 17.925 27.0406 18.3749 27.0656 18.8497C27.0906 19.3495 26.8657 19.7994 26.4908 20.0993C26.6158 20.1742 26.7157 20.2492 26.8157 20.3742C27.0906 20.6991 27.1656 21.1239 27.0656 21.5238C26.9406 21.9236 26.6407 22.2235 26.2409 22.3485C26.5658 22.8483 26.4908 23.4981 26.0659 23.848ZM29.7897 6.80389L19.3933 0.80597C17.5439 -0.268657 15.2447 -0.268657 13.3953 0.80597L2.99896 6.80389C1.1496 7.87851 0 9.85283 0 12.0021V23.9979C0 26.1472 1.1496 28.1215 2.99896 29.1961L13.3953 35.194C15.2447 36.2687 17.5439 36.2687 19.3933 35.194L29.7897 29.1961C31.639 28.1215 32.7886 26.1472 32.7886 23.9979V11.9771C32.7886 9.85283 31.639 7.87851 29.7897 6.80389ZM8.39709 16.1509C8.69699 16.5507 8.77196 17.0755 8.59702 17.5504C9.19681 17.6004 9.67165 18.0752 9.72163 18.675C10.2714 18.55 10.8212 18.8499 11.0212 19.3498C11.471 19.0249 12.1208 19.0998 12.4457 19.5747L12.4957 19.6247L12.6206 19.4997C12.8955 19.2498 13.3204 19.2248 13.6453 19.4497C13.6953 19.2998 13.7702 19.1748 13.8702 19.0749C14.1451 18.8499 14.495 18.8249 14.7699 19.0249C14.8199 18.8499 14.9698 18.725 15.1447 18.7C15.0198 18.5001 14.9698 18.2751 14.9448 18.0502V18.0752C14.6949 18.1502 14.445 18.0252 14.37 17.8003C14.37 17.7753 14.37 17.7753 14.345 17.7503C14.1201 17.8753 13.8452 17.9003 13.6203 17.7753C13.3954 17.6503 13.2454 17.4254 13.2204 17.1755C13.0705 17.2255 12.8455 17.2505 12.6706 17.1755C12.2458 17.0256 12.0208 16.5757 12.1458 16.1509C11.7709 16.1759 11.421 15.9759 11.2211 15.651C11.0212 15.3262 11.0462 14.9263 11.2461 14.6014C10.8462 14.5014 10.5214 14.1516 10.4464 13.7517C10.3464 13.3268 10.4964 12.902 10.8212 12.6521C10.3464 12.2272 10.2964 11.5025 10.6713 11.0027C10.642 11.0027 10.6213 10.9941 10.6042 10.987C10.592 10.982 10.5817 10.9777 10.5713 10.9777C10.5214 11.2026 10.3464 11.4025 10.1465 11.5025C9.94655 11.6274 9.69664 11.6274 9.47172 11.5775C9.44673 12.1023 8.99688 12.5271 8.47206 12.5521C8.62201 12.827 8.64701 13.1769 8.52205 13.4768C8.39709 13.7767 8.14718 14.0016 7.84728 14.1016C8.24714 14.6014 8.22215 15.3012 7.77231 15.751C7.99723 15.751 8.22215 15.901 8.39709 16.1509ZM15.7695 22.1738C15.1947 22.2237 14.7948 22.7486 14.8698 23.2984C14.32 23.1984 13.7702 23.5483 13.5952 24.0481C13.0454 23.7982 12.4207 23.9731 12.0708 24.473L12.0458 24.448C11.546 23.8232 10.6213 23.7482 9.99649 24.248C9.84655 23.6482 9.22176 23.2484 8.59698 23.3483C8.64696 23.0485 8.57199 22.7236 8.37206 22.4736C8.17213 22.2237 7.89722 22.0738 7.57234 22.0488C7.84724 21.599 7.69729 20.9992 7.24745 20.6993C7.44738 20.4993 7.57234 20.1994 7.49736 19.8995C7.47237 19.7246 7.3724 19.5497 7.24745 19.4247C7.29743 19.4247 7.34741 19.3997 7.3974 19.3747C7.6723 19.8995 8.29708 20.1495 8.87188 19.9745C8.92187 20.3994 9.22176 20.7243 9.59663 20.8742C9.9715 21.0242 10.3964 20.9492 10.7212 20.6743C10.8712 20.9492 11.1211 21.1741 11.446 21.2241C11.7709 21.2741 12.0958 21.1741 12.3207 20.9742C12.3957 20.9242 12.5206 20.7992 12.5456 20.6993C12.7455 20.9492 13.0704 21.0242 13.3703 20.9492C13.6702 20.8742 13.8951 20.6243 13.9701 20.3244C14.22 20.4494 14.4949 20.4743 14.7448 20.3244C14.9948 20.1744 15.1197 19.9245 15.1197 19.6496C15.2447 19.6996 15.4196 19.6496 15.5196 19.5497C15.6195 19.4747 15.6695 19.3497 15.6945 19.2498C15.9194 19.3747 16.1693 19.4497 16.4193 19.4497C16.3693 19.5247 16.3693 19.6246 16.3693 19.6996C16.3943 19.7996 16.4193 19.8995 16.4942 19.9495C16.1943 20.0995 16.0444 20.4244 16.0944 20.7493C16.0944 20.8742 16.1943 21.0242 16.2943 21.1241C15.9444 21.2491 15.7445 21.6489 15.8195 22.0238L15.8445 22.1738H15.7695ZM17.9187 12.702C17.9437 12.9769 17.8688 13.2768 17.6688 13.4768C17.4689 13.7017 17.219 13.8266 16.9191 13.8266L16.9441 13.9766C17.0191 14.3515 16.8441 14.7513 16.4942 14.8763H16.4693C16.7691 15.1762 16.7691 15.651 16.4693 15.9259C16.4193 15.9759 16.3693 16.0259 16.2943 16.0509C16.3693 16.1508 16.4193 16.2508 16.3943 16.3758C16.6442 16.3758 16.9191 16.4507 17.144 16.6007C17.244 16.4007 17.4439 16.3008 17.6688 16.3508C17.6688 16.0759 17.7938 15.8259 18.0437 15.676C18.2936 15.526 18.5685 15.551 18.8184 15.676C18.8184 15.5011 18.9184 15.3511 19.0683 15.2262C19.4432 14.9263 19.943 14.9512 20.218 15.3011C20.4929 14.8013 21.0926 14.6264 21.5925 14.8763C21.7674 14.9762 21.9174 15.1262 22.0173 15.3011C22.3422 15.0262 22.7671 14.9512 23.1419 15.1012C23.5168 15.2511 23.8167 15.576 23.8667 16.0009C24.4415 15.801 25.0663 16.0509 25.3412 16.6007L25.4661 16.5257C25.1163 16.2008 25.0913 15.651 25.4161 15.3011C25.4257 15.2916 25.4316 15.282 25.4366 15.2739C25.4448 15.2607 25.4507 15.2511 25.4661 15.2511C25.0163 14.9512 24.8663 14.3515 25.1412 13.9016C24.8164 13.9016 24.5165 13.7517 24.3165 13.4768C24.1166 13.2268 24.0416 12.902 24.0916 12.5771C23.4668 12.677 22.842 12.2772 22.6921 11.6774C22.0673 12.1772 21.1426 12.0772 20.6428 11.4525C20.2929 11.9523 19.6432 12.1272 19.0933 11.8523C18.9934 12.4271 18.4686 12.777 17.9187 12.702ZM12.4707 14.1515C12.8206 13.7017 12.7706 13.0519 12.3707 12.6521C12.8706 12.2772 13.0205 11.6274 12.7706 11.1026C13.5703 10.9527 14.0951 10.2029 13.9702 9.4032C14.595 9.57814 15.2197 9.20327 15.4197 8.60348C15.6696 8.80341 15.9945 8.87838 16.2944 8.8284C16.5943 8.77841 16.8692 8.60348 17.0441 8.32857C17.344 8.77841 17.9188 8.92836 18.3936 8.65346C18.4686 8.95335 18.6436 9.22826 18.9684 9.32822C19.1434 9.37821 19.3433 9.35321 19.5182 9.27824L19.5432 9.55314C19.0434 9.62812 18.6186 10.003 18.5186 10.5028C18.1187 10.3529 17.6939 10.4028 17.369 10.6778C17.0441 10.9527 16.8942 11.3775 16.9691 11.7774C16.5943 11.7774 16.2444 11.9523 16.0445 12.2772C15.8695 12.6021 15.8445 13.0019 16.0445 13.3268C15.7446 13.4018 15.4946 13.6267 15.4197 13.9266C15.3447 14.2265 15.4447 14.5514 15.6696 14.7513C15.4447 14.8763 15.2947 15.1262 15.2947 15.3761C15.2947 15.651 15.4197 15.876 15.6446 16.0259C15.5696 16.1509 15.4946 16.3008 15.5196 16.4508L15.5946 16.6507C15.3947 16.8006 15.2197 17.0006 15.0948 17.2255C14.9698 17.1505 14.8199 17.1005 14.6699 17.1505C14.6949 16.9006 14.595 16.6507 14.395 16.5007C14.1951 16.3508 13.9202 16.3008 13.6953 16.3758C13.7453 16.0259 13.4953 15.676 13.1205 15.5761L12.9705 15.5261C13.0955 15.2762 13.1205 15.0013 13.0205 14.7263C12.9205 14.4764 12.7206 14.2515 12.4707 14.1515ZM24.2666 22.5986C24.3915 22.2987 24.6414 22.0738 24.9413 21.9738C24.5415 21.474 24.5665 20.7742 25.0163 20.3244C24.7414 20.2494 24.5165 20.0745 24.3665 19.8496H24.3416C24.0417 19.4497 23.9667 18.9249 24.1416 18.4501C23.5418 18.4001 23.067 17.9252 23.017 17.3254C22.4922 17.4504 21.9424 17.1505 21.7425 16.6507C21.5175 16.8256 21.2176 16.9006 20.9427 16.8506C20.6678 16.8006 20.4179 16.6257 20.268 16.3758L20.143 16.5007C19.8681 16.7506 19.4433 16.7756 19.1434 16.5757C19.0934 16.7257 18.9934 16.8506 18.8934 16.9506C18.6435 17.1755 18.2687 17.2005 17.9938 17.0006C17.9688 17.1255 17.8688 17.2255 17.7438 17.3005C17.8438 17.5004 17.9188 17.7503 17.9188 18.0002H18.1187C18.2936 18.0502 18.3936 18.1751 18.4186 18.3251C18.6435 18.1751 18.9184 18.1751 19.1683 18.3001C19.3933 18.4251 19.5682 18.65 19.5682 18.9249C19.7431 18.8499 19.9431 18.8499 20.118 18.9249C20.5429 19.0748 20.7678 19.5247 20.6428 19.9495C21.0427 19.8996 21.4426 20.0995 21.6425 20.4494C21.8424 20.7992 21.8174 21.2241 21.5925 21.549C21.9674 21.6739 22.2423 21.9988 22.3173 22.3987C22.3922 22.7985 22.2673 23.1984 21.9674 23.4733C22.4422 23.8982 22.4922 24.6229 22.1173 25.1227L22.2423 25.1727C22.2923 24.9478 22.4422 24.7479 22.6671 24.6479C22.8671 24.5229 23.117 24.498 23.3419 24.5729C23.3669 24.0231 23.8167 23.5983 24.3416 23.5983C24.1666 23.2484 24.1666 22.8985 24.2666 22.5986ZM20.318 21.8489C19.9681 22.2987 20.0181 22.9485 20.4179 23.3484C19.9431 23.6982 19.7681 24.348 19.9931 24.8728C19.1933 25.0228 18.6685 25.7725 18.7935 26.5722C18.1937 26.4223 17.5189 26.7472 17.344 27.372C17.0941 27.172 16.7942 27.0721 16.4693 27.1221C16.1694 27.172 15.8945 27.347 15.7196 27.6219C15.4197 27.172 14.8449 27.0221 14.37 27.297C14.32 27.0471 14.1701 26.8471 13.9702 26.7222C13.7702 26.5972 13.4953 26.5722 13.2704 26.6472V26.6722L13.2454 26.3973C13.7452 26.3223 14.1701 25.9475 14.2701 25.4476C14.47 25.5226 14.6699 25.5226 14.8698 25.4976C15.4946 25.3977 15.8945 24.8229 15.7945 24.1981C16.0944 24.1981 16.4193 24.0731 16.6192 23.8482C16.8442 23.5983 16.9191 23.2734 16.8691 22.9735C16.8691 22.8548 16.8379 22.7831 16.8 22.6965C16.79 22.6736 16.7796 22.6497 16.7692 22.6236C17.0691 22.5486 17.294 22.3237 17.369 22.0238C17.4439 21.7239 17.344 21.399 17.1191 21.1991C17.219 21.1491 17.294 21.0492 17.369 20.9492C17.5939 20.5993 17.4689 20.1495 17.1191 19.9246L17.169 19.8746C17.319 19.6746 17.319 19.3997 17.1191 19.2248C17.344 19.0998 17.5439 18.9249 17.6689 18.7C17.7688 18.7999 17.9188 18.8499 18.0687 18.8249C18.0687 19.0749 18.1687 19.2998 18.3686 19.4497C18.5686 19.5997 18.8435 19.6497 19.0684 19.5747V19.5997C19.0434 19.9495 19.2683 20.2994 19.6432 20.3994L19.7931 20.4494C19.6682 20.7243 19.6432 21.0242 19.7432 21.2741C19.8431 21.524 20.043 21.7489 20.318 21.8489Z" fill="#F05656"/>
</svg>