<svg width="143" height="72" viewBox="0 0 143 72" fill="none" xmlns="http://www.w3.org/2000/svg">
<path d="M140.751 43.1858C140.56 43.1063 140.358 43.0553 140.153 43.0346C139.734 43.013 139.317 43.1086 138.95 43.3107C138.625 43.5033 138.36 43.7835 138.187 44.1193C137.687 44.8753 137.313 45.7037 136.872 46.486C136.206 47.5604 135.447 48.5744 134.604 49.5166C133.822 50.437 132.928 51.2522 132.093 52.1463C132.024 52.2361 131.928 52.3012 131.819 52.332C131.71 52.3628 131.594 52.3576 131.488 52.3172C131.408 52.2561 131.347 52.1736 131.313 52.0794C131.278 51.9852 131.27 51.883 131.291 51.7847C131.534 49.5495 131.718 47.3012 132.021 45.066C132.146 44.047 132.27 43.0938 132.402 42.0485C132.566 40.6022 132.737 39.1625 132.908 37.7162L134.308 26.9281C134.44 26.1655 134.479 24.7192 133.506 23.8712C133.116 23.5166 132.628 23.2875 132.106 23.2138C131.586 23.1772 131.066 23.2962 130.614 23.5556C129.299 24.5154 128.839 26.5468 128.477 28.0589C127.629 31.6154 127.406 35.3824 125.696 38.6826C125.357 39.3415 124.958 39.9686 124.506 40.5562C124.207 40.9735 123.835 41.3341 123.409 41.6212C122.979 41.9071 122.459 42.022 121.949 41.9433C121.634 41.8602 121.343 41.7045 121.098 41.4888C120.854 41.2731 120.664 41.0032 120.542 40.7008C120.306 40.0953 120.186 39.4508 120.187 38.8009C120.086 35.6017 120.563 32.4104 121.594 29.3802C121.871 28.654 122.069 27.9003 122.186 27.1319C122.357 26.1918 122.357 24.877 121.528 24.0684C121.141 23.6958 120.664 23.4297 120.143 23.2961C119.622 23.1625 119.076 23.1658 118.557 23.3058C118.043 23.5133 117.579 23.8291 117.198 24.2319C116.817 24.6346 116.527 25.1147 116.348 25.6396C115.171 28.3744 114.856 31.2539 114.481 34.1859C114.28 36.1131 113.687 37.9788 112.739 39.6687C112.117 40.7415 111.376 41.7405 110.53 42.6467C110.115 43.109 109.659 43.5336 109.169 43.9155C108.901 44.1508 108.588 44.3302 108.249 44.4431C107.911 44.556 107.553 44.6001 107.197 44.5729C106.843 44.5151 106.507 44.3733 106.219 44.1595C105.931 43.9456 105.698 43.6658 105.54 43.3436C105.241 42.7614 105.053 42.128 104.988 41.4765C104.804 40.2829 104.733 39.0744 104.778 37.8674C104.751 36.563 104.837 35.2586 105.034 33.9689C105.494 31.6614 109.051 22.5432 109.827 20.1634C110.655 17.7467 111.351 15.2865 111.911 12.7939C112.411 10.5664 112.632 8.28505 112.568 6.00284C112.509 4.39876 112.16 2.63034 110.872 1.67709C110.348 1.32922 109.745 1.11912 109.119 1.06625C108.493 1.01339 107.863 1.11947 107.289 1.37468C106.14 1.90153 105.194 2.78757 104.594 3.89914C104.002 5.00356 103.559 6.18192 103.279 7.40312C102.62 9.92055 102.091 12.4703 101.694 15.0422C101.293 17.5403 100.879 20.0253 100.478 22.5235C100.136 24.6272 99.2686 32.0559 98.9333 33.6271C98.5423 35.2448 97.9481 36.8065 97.1649 38.275C96.3694 39.8396 95.6265 41.4305 94.7456 42.9557C94.4934 43.4589 94.1424 43.9061 93.7135 44.2705C93.4906 44.4503 93.2233 44.5665 92.9398 44.607C92.6563 44.6475 92.3672 44.6108 92.1028 44.5006C91.8155 44.316 91.5759 44.0661 91.4034 43.7714C91.2309 43.4767 91.1304 43.1454 91.1101 42.8045C90.6434 40.2406 91.051 37.6307 91.5375 35.1063C92.0239 32.5818 94.1671 20.9326 94.6207 18.2503C95.1992 15.1277 96.0473 12.0444 96.3037 8.86255C96.4877 6.5682 96.8427 3.69533 95.1269 1.86117C94.7902 1.51866 94.3735 1.26539 93.9144 1.12422C93.4553 0.983052 92.9683 0.958425 92.4973 1.05256C91.5453 1.32992 90.73 1.9507 90.2095 2.79469C89.5636 3.63318 89.0472 4.56393 88.6777 5.55579C88.0401 7.3136 87.5303 9.11522 87.1525 10.9465L86.9816 11.7157C86.4882 13.978 86.113 16.2645 85.8575 18.5659C85.7216 19.8018 85.6054 21.0421 85.509 22.2868C85.463 22.8916 85.3973 23.503 85.3775 24.1078C85.4215 24.5927 85.361 25.0815 85.2 25.541C85.1307 25.6976 85.0274 25.8368 84.8976 25.9486C84.3468 26.2845 83.6916 26.4062 83.0569 26.2904C79.7699 26.1918 76.8575 28.0523 75.0431 30.7411C74.0679 32.275 73.2987 33.9305 72.7553 35.6651C72.6633 35.9609 72.5384 36.2567 72.4135 36.5591C72.0465 37.5946 71.6071 38.6029 71.0987 39.5766C70.5548 40.5332 69.9301 41.4415 69.2316 42.2917C68.5542 43.1767 67.7851 43.9876 66.9373 44.711C66.0842 45.4751 65.0463 46.0031 63.9264 46.2427C63.3323 46.3183 62.7288 46.2496 62.1669 46.0424C61.6051 45.8353 61.1014 45.4959 60.6985 45.0528C59.9608 44.1488 59.5261 43.0357 59.456 41.871C59.3978 41.5372 59.4633 41.1936 59.64 40.9046C59.8148 40.7402 60.0222 40.6143 60.2487 40.5351C60.4751 40.4558 60.7157 40.4249 60.9549 40.4444C62.737 40.3022 64.4439 39.6641 65.8822 38.6022C67.3205 37.5403 68.4329 36.097 69.0936 34.4357C69.8966 32.488 70.1469 30.3565 69.8167 28.2758C69.6621 27.2574 69.285 26.2855 68.7123 25.4292C68.1193 24.5919 67.3105 23.9308 66.3719 23.5162C65.4208 23.1248 64.4012 22.9272 63.3728 22.9351C62.3444 22.943 61.3279 23.1562 60.3829 23.5622C56.9907 24.923 54.7818 27.9339 53.6774 32.7659L53.5525 33.2721C52.895 36.1647 52.1916 39.1888 50.1076 41.2596C49.8428 41.5656 49.5075 41.8026 49.1308 41.9503C48.754 42.0981 48.347 42.1521 47.9448 42.1077C47.8079 42.0822 47.6782 42.0273 47.5647 41.9467C47.4512 41.8661 47.3565 41.7617 47.2874 41.6409C46.7351 40.7074 47.3268 38.4985 48.1814 35.7242C48.4237 35.0164 48.6213 34.294 48.7731 33.5614C48.8323 32.5418 48.6046 31.526 48.1157 30.6293C47.602 29.7915 46.8485 29.1273 45.9528 28.7228C45.066 28.4193 44.1254 28.3051 43.1917 28.3876H42.8959C42.595 28.4003 42.2938 28.3693 42.0018 28.2955C41.8072 28.2513 41.627 28.158 41.4786 28.0245C41.3301 27.8911 41.2183 27.7218 41.1538 27.5329C41.0729 27.079 41.1022 26.6123 41.2392 26.1721C41.2787 26.0472 41.3247 25.8763 41.3641 25.7514C41.478 25.2961 41.4453 24.8164 41.2706 24.3808C41.0959 23.9452 40.7881 23.5759 40.3912 23.3255C39.9805 23.0741 39.5161 22.9239 39.036 22.8874C38.5559 22.8508 38.074 22.9289 37.6301 23.1152C36.7083 23.5468 35.9499 24.2636 35.4672 25.1597C34.9653 26.0189 34.7553 27.0177 34.8689 28.0063C35.1512 28.9112 35.2386 29.8657 35.1253 30.8068C34.7835 32.4635 33.8105 33.8178 32.831 35.1786C32.614 35.4744 32.4037 35.836 32.1736 36.1121C30.9714 37.8892 29.5757 39.5274 28.0122 40.9966C25.9587 42.9196 23.4425 44.2784 20.7084 44.9411C16.2972 45.914 11.7939 44.5861 9.41413 40.5956C8.15242 38.2937 7.44134 35.7307 7.33672 33.1077C6.99836 28.0257 7.88672 22.9369 9.9269 18.2701C11.8597 13.78 14.7326 9.2833 20.0576 8.7245C22.1284 8.50756 24.5082 9.22413 25.4351 11.0912C26.0926 12.452 25.8756 14.089 25.4351 15.5484C24.9947 17.0078 24.3964 18.4476 24.3701 19.9662C24.3438 21.4848 25.1064 23.1677 26.5593 23.6082C28.0122 24.0487 29.5045 23.1349 30.3197 21.9055C31.1349 20.6762 31.4176 19.1839 31.7726 17.7507C32.6035 14.3659 33.9211 11.1196 35.6841 8.11311C36.4993 6.72598 37.446 5.22052 37.1699 3.63617C37.0634 3.0661 36.8042 2.53565 36.4198 2.10145C36.0354 1.66725 35.5402 1.34561 34.9873 1.17089C34.4292 1.01232 33.8386 1.00806 33.2783 1.15856C32.718 1.30906 32.2089 1.60867 31.8054 2.02552C31.01 2.87358 30.6155 4.20154 29.5176 4.57626C28.4198 4.95099 27.46 4.26071 26.5199 3.7545C23.0027 1.86117 18.631 1.92691 14.9232 3.45209C11.244 5.08296 8.12398 7.75725 5.9496 11.1438C2.65234 15.9795 0.647218 21.5785 0.124977 27.408C-0.0393804 29.4471 -0.0393804 31.496 0.124977 33.5351C0.266265 35.9425 0.68764 38.3252 1.38061 40.6351C2.08539 42.9534 3.1767 45.136 4.60848 47.0908C6.04291 49.0283 7.96383 50.5523 10.1767 51.5086C12.4147 52.4044 14.815 52.8232 17.2241 52.7379C19.6361 52.6377 22.0044 52.0612 24.1927 51.0418C26.3978 50.0096 28.4416 48.6633 30.2605 47.0448C32.1217 45.4969 33.7903 43.7312 35.2305 41.7855C36.2151 40.4697 37.0944 39.0783 37.8601 37.6241C38.2414 36.8878 38.5964 36.1318 38.9186 35.3627C39.0023 35.0364 39.1508 34.7304 39.3552 34.4627C39.5596 34.195 39.8158 33.9712 40.1085 33.8046C40.2925 33.7016 40.5026 33.6547 40.713 33.6699C40.9233 33.6851 41.1245 33.7617 41.2918 33.8901C41.6512 34.0516 41.9389 34.3393 42.1004 34.6987C42.3066 35.3422 42.2927 36.0361 42.061 36.6709V36.7564C41.8901 37.348 41.7191 37.9397 41.5088 38.5379C40.7002 41.0426 40.1085 43.337 40.5752 45.5853C40.7863 46.7332 41.2991 47.8042 42.061 48.6883C42.8403 49.5395 43.8902 50.0947 45.0325 50.2595C46.5111 50.421 48.0049 50.1493 49.3319 49.4772C50.1867 49.0754 50.9793 48.5529 51.6854 47.9257C52.051 47.5962 52.3896 47.2378 52.6978 46.8541C52.9805 46.4991 53.2435 45.9732 53.776 46.0061C53.9073 46.0186 54.0342 46.0599 54.1478 46.1269C54.2614 46.194 54.3589 46.2851 54.4334 46.394C54.5718 46.5995 54.6864 46.82 54.7752 47.0514C55.4763 48.5481 56.5924 49.8121 57.9909 50.6932C59.3893 51.5742 61.0113 52.0352 62.6641 52.0214H63.0914C64.723 51.9574 66.316 51.5067 67.7393 50.7065C69.2617 49.804 70.6624 48.7104 71.9073 47.4524C72.0121 47.3361 72.146 47.2499 72.2951 47.2026C72.4058 47.1913 72.5176 47.2083 72.6199 47.252C72.7222 47.2957 72.8118 47.3646 72.8802 47.4524C73.0081 47.6369 73.1099 47.8382 73.1826 48.0506C73.6067 49.0509 74.2737 49.9295 75.1232 50.6068C75.9727 51.2841 76.9779 51.7387 78.0475 51.9293C79.1212 52.096 80.2197 51.9914 81.2427 51.6251C82.2658 51.2589 83.181 50.6425 83.905 49.8322C84.1905 49.4516 84.5143 49.1014 84.8713 48.7869C85.0501 48.6349 85.264 48.53 85.4937 48.4818C85.7233 48.4335 85.9614 48.4435 86.1862 48.5108C86.7975 48.7606 86.9882 49.5035 87.2577 50.1017C87.586 50.7782 88.1007 51.3468 88.7413 51.7405C89.3819 52.1341 90.1217 52.3365 90.8735 52.3238C92.5824 52.2426 94.1977 51.5195 95.3964 50.299C96.5108 49.1769 97.5393 47.9726 98.4731 46.6964C98.6339 46.4632 98.8395 46.2643 99.0779 46.1113C99.1991 46.0389 99.3377 46.0007 99.4789 46.0007C99.6201 46.0007 99.7587 46.0389 99.8799 46.1113C100.042 46.2638 100.16 46.4567 100.222 46.6701C100.732 47.8268 101.572 48.8067 102.638 49.4864C103.704 50.1661 104.947 50.5152 106.211 50.4896C108.689 50.3381 111.017 49.2527 112.726 47.4524C113.202 46.8357 113.867 46.3922 114.619 46.1902C115.441 46.0981 115.835 46.8476 116.124 47.505C116.417 48.2914 116.931 48.9764 117.604 49.4772C118.065 49.8103 118.594 50.0368 119.154 50.1402C119.713 50.2437 120.288 50.2216 120.838 50.0754C121.946 49.7624 122.926 49.1065 123.639 48.2018C124.059 47.6825 124.296 47.0119 124.763 46.532C125.23 46.0521 125.512 46.6898 125.558 47.104C125.626 47.8009 125.642 48.5019 125.604 49.2011C125.532 50.5882 125.295 51.9622 125.118 53.3427C125.106 53.7441 124.976 54.133 124.743 54.4603C124.54 54.64 124.296 54.7679 124.033 54.8332C123.77 54.8984 123.495 54.8991 123.231 54.8351C122.574 54.743 121.989 54.6904 121.344 54.6576L120.536 54.5721C119.352 54.4932 118.156 54.3617 116.927 54.3223H115.822C113.758 54.2706 111.701 54.5867 109.748 55.2558C108.383 55.7716 107.147 56.5779 106.126 57.6188C105.104 58.6598 104.321 59.9105 103.831 61.2842C103.413 62.4988 103.312 63.7996 103.535 65.0643C103.774 66.3366 104.346 67.5229 105.192 68.5026C106.047 69.4711 107.09 70.2565 108.257 70.8112C109.424 71.366 110.692 71.6787 111.983 71.7304C114.616 71.8268 117.234 71.3044 119.628 70.2053C122.067 69.178 124.238 67.6067 125.975 65.6115C127.713 63.6164 128.971 61.2502 129.654 58.694C129.655 58.6395 129.672 58.5866 129.702 58.5412C129.733 58.4958 129.775 58.4599 129.825 58.4377C131.543 57.853 133.162 57.0083 134.624 55.9329C136.073 54.8331 137.371 53.5466 138.483 52.1068C139.019 51.4088 139.517 50.6824 139.975 49.9308C140.416 49.2011 140.771 48.4188 141.191 47.6693C141.548 47.0965 141.812 46.4708 141.974 45.8154C142.056 45.482 142.07 45.1353 142.014 44.7964C141.959 44.4574 141.836 44.1332 141.652 43.8432C141.421 43.542 141.108 43.3137 140.751 43.1858M59.8899 33.5614C59.9885 33.134 60.12 32.7133 60.2449 32.3254C60.5904 31.2574 61.1053 30.2519 61.77 29.3474C61.9932 29.0333 62.2664 28.7579 62.5787 28.5322C62.8957 28.3085 63.2853 28.2123 63.67 28.2627C63.9842 28.3485 64.2655 28.5266 64.4776 28.7738C64.6896 29.0211 64.8228 29.3262 64.8599 29.6498C64.9461 30.785 64.7186 31.9221 64.2025 32.9368C63.7922 33.8923 63.1587 34.7355 62.3551 35.3955C62.0284 35.6541 61.6733 35.8747 61.2967 36.0529C61.0866 36.139 60.8652 36.1944 60.6393 36.2173H60.5539C60.3883 36.2313 60.2228 36.189 60.0843 36.0971C59.9459 36.0052 59.8426 35.8691 59.7913 35.7111C59.6981 34.985 59.7494 34.2477 59.9425 33.5416M85.4367 32.4438C85.4038 32.8908 85.2921 33.3378 85.2592 33.7586C85.2263 34.3305 85.2001 34.9025 85.1869 35.4744C85.1869 36.4408 85.1869 37.4138 85.2658 38.3802C85.3447 39.3465 85.5353 40.142 85.1869 41.0098C84.8186 42.1108 84.16 43.092 83.2804 43.8498C82.8396 44.2207 82.3537 44.5344 81.8341 44.7833C81.3851 45.008 80.8899 45.125 80.3878 45.1252C80.2629 45.1252 80.1775 45.0857 80.0526 45.0857C79.7212 45.0583 79.4024 44.9459 79.1272 44.7594C78.852 44.5728 78.6295 44.3184 78.4813 44.0207C78.1909 43.5222 77.9885 42.9773 77.8831 42.4101C77.4302 40.2027 77.5778 37.9143 78.3104 35.7834C78.7736 34.4458 79.5488 33.2379 80.5719 32.2597C81.4751 31.4014 82.6599 30.9013 83.905 30.8528C84.1197 30.8334 84.3362 30.8571 84.5417 30.9226C84.7472 30.9881 84.9375 31.094 85.1014 31.2341C85.3406 31.4976 85.4659 31.845 85.4499 32.2005C85.4499 32.2728 85.4499 32.3517 85.4499 32.4306M123.461 59.9037C123.345 60.199 123.191 60.4776 123.001 60.732C122.72 61.2227 122.392 61.6851 122.021 62.1126C121.451 62.761 120.827 63.3592 120.154 63.9007C118.772 64.938 117.213 65.7155 115.553 66.1951C114.61 66.4484 113.642 66.5896 112.667 66.6158H112.456C111.345 66.628 110.265 66.2538 109.399 65.5574C108.932 65.1767 108.603 64.652 108.466 64.0651C108.383 63.455 108.487 62.8343 108.762 62.2835C109.219 61.2767 110.018 60.464 111.016 59.9891C112.916 59.1783 114.989 58.8573 117.045 59.0556L119.425 59.1871C120.082 59.22 120.693 59.2726 121.331 59.3186C121.673 59.3186 121.989 59.3186 122.35 59.3843C122.616 59.3789 122.881 59.3898 123.146 59.4172C123.448 59.5027 123.507 59.6867 123.448 59.9037" fill="#FF6A00"/>
<path d="M42.9813 65.3207V57.8657H43.9871V60.7057C44.1883 60.424 44.4536 60.1943 44.7611 60.0354C45.0686 59.8765 45.4094 59.793 45.7555 59.7919C47.1624 59.7919 48.1551 60.8963 48.1551 62.6253C48.1551 64.3543 47.1492 65.4521 45.7555 65.4521C45.4111 65.4493 45.0721 65.3665 44.7652 65.2102C44.4583 65.0539 44.1919 64.8284 43.9871 64.5515V65.3207H42.9813ZM43.9871 63.7758C44.1555 64.0172 44.3797 64.2145 44.6406 64.3507C44.9016 64.4869 45.1916 64.558 45.486 64.5581C46.4918 64.5581 47.1164 63.756 47.1164 62.6253C47.1164 61.4946 46.4918 60.6859 45.486 60.6859C45.1904 60.6909 44.9003 60.7663 44.6396 60.9057C44.3789 61.0452 44.1553 61.2448 43.9871 61.488V63.7758Z" fill="#505759"/>
<path d="M49.608 66.5303C49.7509 66.5846 49.9022 66.6135 50.055 66.6158C50.2264 66.6335 50.3985 66.5905 50.5414 66.4944C50.6843 66.3984 50.7891 66.2552 50.8374 66.0899L51.1529 65.3733L48.9309 59.9234H50.0287L51.7117 64.1571L53.4012 59.9234H54.486L51.8235 66.3463C51.7064 66.7027 51.4745 67.0102 51.164 67.2207C50.8535 67.4313 50.482 67.533 50.1076 67.5099C49.8862 67.5091 49.6656 67.4827 49.4502 67.431L49.608 66.5303Z" fill="#505759"/>
<path d="M58.7394 65.3208V57.8658H61.862C62.173 57.8434 62.4852 57.8868 62.7784 57.993C63.0715 58.0993 63.339 58.266 63.5634 58.4824C63.7879 58.6988 63.9643 58.96 64.0812 59.2491C64.1981 59.5381 64.2528 59.8485 64.2419 60.1601C64.2508 60.4709 64.1947 60.7801 64.077 61.0679C63.9594 61.3557 63.7828 61.6156 63.5587 61.8311C63.3345 62.0466 63.0678 62.2127 62.7756 62.319C62.4834 62.4252 62.1722 62.4691 61.862 62.4479H59.8898V65.3208H58.7394ZM61.7371 58.8519H59.8898V61.4815H61.77C61.9476 61.4895 62.125 61.4614 62.2914 61.3989C62.4578 61.3364 62.6098 61.2409 62.7382 61.118C62.8666 60.9951 62.9688 60.8474 63.0386 60.6839C63.1083 60.5204 63.1442 60.3444 63.144 60.1667C63.1444 59.986 63.1076 59.8071 63.0359 59.6413C62.9641 59.4755 62.859 59.3262 62.7269 59.2028C62.5949 59.0795 62.4389 58.9846 62.2686 58.9242C62.0983 58.8639 61.9174 58.8392 61.7371 58.8519V58.8519Z" fill="#505759"/>
<path d="M67.8839 59.7919C69.5012 59.7919 70.5136 61.0542 70.5136 62.7043V62.9541H66.247C66.2725 63.4179 66.4789 63.8533 66.8218 64.1667C67.1647 64.4802 67.6169 64.6466 68.0812 64.6305C68.6787 64.6264 69.2514 64.3908 69.6787 63.973L70.1454 64.6305C69.5564 65.1735 68.7766 65.4617 67.976 65.4325C67.6019 65.4467 67.2289 65.3828 66.8809 65.2449C66.5329 65.107 66.2173 64.8981 65.9545 64.6316C65.6916 64.365 65.4872 64.0466 65.3542 63.6967C65.2212 63.3467 65.1625 62.9729 65.182 62.5991C65.1697 62.2359 65.2304 61.8741 65.3605 61.5348C65.4906 61.1956 65.6874 60.8859 65.9394 60.6241C66.1913 60.3624 66.4932 60.1538 66.8273 60.0109C67.1613 59.8679 67.5206 59.7935 67.8839 59.7919V59.7919ZM66.2273 62.2243H69.5143C69.5171 62.0098 69.4764 61.797 69.3948 61.5986C69.3131 61.4002 69.1922 61.2204 69.0393 61.0699C68.8864 60.9195 68.7046 60.8015 68.505 60.7231C68.3053 60.6447 68.0918 60.6075 67.8774 60.6137C67.4425 60.6154 67.0258 60.788 66.7171 61.0942C66.4084 61.4005 66.2325 61.8158 66.2273 62.2506V62.2243Z" fill="#505759"/>
<path d="M75.3784 65.3208V64.7291C75.1528 64.9677 74.8791 65.1556 74.5753 65.2803C74.2715 65.405 73.9447 65.4636 73.6166 65.4522C73.3743 65.4638 73.1323 65.4261 72.905 65.3415C72.6777 65.2569 72.47 65.1272 72.2943 64.96C72.1185 64.7929 71.9785 64.5919 71.8826 64.3692C71.7867 64.1465 71.737 63.9066 71.7364 63.6641C71.7328 63.4216 71.78 63.181 71.8749 62.9577C71.9697 62.7345 72.1101 62.5335 72.2871 62.3676C72.4641 62.2018 72.6738 62.0747 72.9027 61.9946C73.1316 61.9144 73.3748 61.883 73.6166 61.9022C73.9447 61.8857 74.2726 61.9412 74.577 62.065C74.8814 62.1888 75.1549 62.3779 75.3784 62.6188V61.7247C75.3784 61.0673 74.8328 60.6466 74.0636 60.6466C73.7581 60.6476 73.4562 60.7119 73.1768 60.8352C72.8974 60.9585 72.6464 61.1382 72.4398 61.3632L72.0059 60.6729C72.2967 60.3842 72.6428 60.1573 73.0236 60.0059C73.4043 59.8546 73.8117 59.7818 74.2214 59.792C75.3915 59.792 76.3842 60.3047 76.3842 61.6787V65.3208H75.3784ZM75.3784 63.2171C75.2101 63.0149 74.9973 62.8545 74.7566 62.7485C74.516 62.6424 74.254 62.5935 73.9913 62.6057C73.8385 62.5883 73.6838 62.6029 73.5369 62.6484C73.3901 62.6939 73.2543 62.7694 73.1381 62.8701C73.0219 62.9709 72.9279 63.0946 72.862 63.2335C72.7961 63.3725 72.7598 63.5235 72.7554 63.6772C72.7598 63.8309 72.7961 63.982 72.862 64.1209C72.9279 64.2599 73.0219 64.3836 73.1381 64.4843C73.2543 64.5851 73.3901 64.6606 73.5369 64.7061C73.6838 64.7516 73.8385 64.7662 73.9913 64.7488C74.254 64.761 74.516 64.7121 74.7566 64.606C74.9973 64.4999 75.2101 64.3395 75.3784 64.1374V63.2171Z" fill="#505759"/>
<path d="M78.2972 65.3207V59.9234H79.3031V60.7518C79.5049 60.4693 79.7685 60.2366 80.0738 60.0714C80.3791 59.9062 80.7181 59.8129 81.0649 59.7985V60.8175C80.9491 60.8059 80.8323 60.8059 80.7165 60.8175C80.435 60.8324 80.1604 60.9097 79.9125 61.0439C79.6647 61.1781 79.4497 61.3657 79.2834 61.5932V65.347L78.2972 65.3207Z" fill="#505759"/>
<path d="M82.3403 63.881C82.8226 64.3629 83.4731 64.6387 84.1548 64.6502C84.9108 64.6502 85.3184 64.3346 85.3184 63.881C85.3184 63.4274 84.7004 63.1645 84.0036 63.0067C83.0832 62.7963 82.0313 62.5465 82.0313 61.3895C82.0313 60.5283 82.7676 59.792 84.089 59.792C84.8491 59.7692 85.5879 60.0453 86.1467 60.5611L85.6997 61.2645C85.4948 61.0485 85.2466 60.8782 84.9713 60.7649C84.6959 60.6516 84.3998 60.5978 84.1022 60.6071C83.4448 60.6071 82.9912 60.8701 82.9912 61.3106C82.9912 61.751 83.5762 61.968 84.2468 62.0929C85.1803 62.3032 86.2979 62.5596 86.2979 63.8021C86.2979 64.7291 85.5419 65.4522 84.1219 65.4522C83.7103 65.4707 83.2992 65.4063 82.913 65.2629C82.5268 65.1195 82.1733 64.8999 81.8736 64.6173L82.3403 63.881Z" fill="#505759"/>
<path d="M87.501 62.6188C87.48 62.2504 87.5355 61.8817 87.6639 61.5358C87.7923 61.19 87.9908 60.8744 88.247 60.6089C88.5033 60.3434 88.8116 60.1338 89.1527 59.9932C89.4938 59.8526 89.8603 59.7841 90.2292 59.7919C90.5978 59.784 90.964 59.8526 91.3048 59.9932C91.6456 60.1339 91.9535 60.3436 92.2092 60.6092C92.4649 60.8748 92.6629 61.1905 92.7905 61.5363C92.9181 61.8822 92.9727 62.2508 92.9509 62.6188C92.9737 62.9873 92.9198 63.3566 92.7926 63.7033C92.6654 64.0499 92.4676 64.3664 92.2118 64.6327C91.956 64.899 91.6477 65.1094 91.3064 65.2504C90.9652 65.3915 90.5984 65.4602 90.2292 65.4522C89.86 65.4591 89.4934 65.3898 89.1523 65.2484C88.8111 65.1071 88.5028 64.8969 88.2467 64.6309C87.9906 64.3649 87.7922 64.0489 87.6639 63.7027C87.5355 63.3564 87.4801 62.9874 87.501 62.6188ZM91.9056 62.6188C91.931 62.3801 91.907 62.1388 91.8351 61.9098C91.7632 61.6808 91.645 61.4691 91.4878 61.2878C91.3305 61.1065 91.1376 60.9595 90.9211 60.856C90.7046 60.7524 90.469 60.6946 90.2292 60.686C89.9893 60.6946 89.7538 60.7524 89.5373 60.856C89.3208 60.9595 89.1279 61.1065 88.9707 61.2878C88.8134 61.4691 88.6951 61.6808 88.6232 61.9098C88.5514 62.1388 88.5274 62.3801 88.5528 62.6188C88.5274 62.8578 88.5514 63.0994 88.6232 63.3288C88.695 63.5581 88.8132 63.7703 88.9703 63.9521C89.1275 64.1339 89.3203 64.2815 89.5369 64.3858C89.7534 64.49 89.989 64.5487 90.2292 64.5581C90.4702 64.5505 90.7071 64.4931 90.9249 64.3896C91.1426 64.286 91.3367 64.1386 91.4947 63.9564C91.6528 63.7743 91.7714 63.5615 91.8433 63.3313C91.9151 63.1011 91.9386 62.8585 91.9122 62.6188H91.9056Z" fill="#505759"/>
<path d="M98.1575 65.3207V61.8693C98.1575 60.9752 97.6973 60.686 97.0071 60.686C96.7162 60.6948 96.4312 60.7699 96.1738 60.9054C95.9163 61.041 95.6932 61.2335 95.5213 61.4683V65.3207H94.5155V59.9234H95.5213V60.686C95.7572 60.4098 96.0492 60.1872 96.378 60.033C96.7068 59.8789 97.0647 59.7966 97.4278 59.7919C97.6635 59.7617 97.903 59.786 98.1278 59.8629C98.3526 59.9399 98.5567 60.0675 98.7244 60.2358C98.8921 60.4041 99.0189 60.6087 99.095 60.8338C99.1711 61.0589 99.1945 61.2985 99.1634 61.534V65.3207H98.1575Z" fill="#505759"/>
</svg>
