<?xml version="1.0" encoding="UTF-8"?>
<!DOCTYPE svg PUBLIC "-//W3C//DTD SVG 1.1//EN" "http://www.w3.org/Graphics/SVG/1.1/DTD/svg11.dtd">
<svg xmlns="http://www.w3.org/2000/svg" version="1.1" width="266px" height="363px" style="shape-rendering:geometricPrecision; text-rendering:geometricPrecision; image-rendering:optimizeQuality; fill-rule:evenodd; clip-rule:evenodd" xmlns:xlink="http://www.w3.org/1999/xlink">
<g><path style="opacity:1" fill="#fefefe" d="M -0.5,-0.5 C 52.8333,-0.5 106.167,-0.5 159.5,-0.5C 177.512,54.5549 190.012,110.888 197,168.5C 197.5,179 198,189.5 198.5,200C 198.499,203.683 198.165,207.183 197.5,210.5C 188.062,193.062 174.395,180.062 156.5,171.5C 147.493,165.232 137.493,161.065 126.5,159C 83.2117,152.068 47.3783,165.235 19,198.5C 7.39681,213.472 1.23014,230.472 0.5,249.5C 0.166667,249.5 -0.166667,249.5 -0.5,249.5C -0.5,166.167 -0.5,82.8333 -0.5,-0.5 Z"/></g>
<g><path style="opacity:1" fill="#fefdfd" d="M 161.5,-0.5 C 196.167,-0.5 230.833,-0.5 265.5,-0.5C 265.5,120.5 265.5,241.5 265.5,362.5C 176.833,362.5 88.1667,362.5 -0.5,362.5C -0.5,324.833 -0.5,287.167 -0.5,249.5C -0.166667,249.5 0.166667,249.5 0.5,249.5C -0.601497,279.126 9.73184,303.959 31.5,324C 32.0944,324.464 32.7611,324.631 33.5,324.5C 53.7698,343.925 77.4364,349.425 104.5,341C 140.689,324.787 153.189,297.62 142,259.5C 136.44,248.108 128.273,239.108 117.5,232.5C 95.8511,219.291 76.6844,222.291 60,241.5C 53.7662,252.218 52.9329,263.218 57.5,274.5C 58.3,281.147 61.1333,286.814 66,291.5C 55.7454,268.728 62.5787,253.562 86.5,246C 95.3706,244.742 103.704,246.242 111.5,250.5C 125.764,268.037 127.264,286.704 116,306.5C 97.7571,327.436 75.5904,333.102 49.5,323.5C 34.0437,312.952 24.8771,298.285 22,279.5C 18.4712,251.402 27.9712,228.902 50.5,212C 73.0256,195.159 98.359,187.492 126.5,189C 144.439,190.96 158.272,199.46 168,214.5C 176.28,227.19 182.114,240.857 185.5,255.5C 186.06,293.396 170.727,322.896 139.5,344C 128.287,351.272 116.287,356.939 103.5,361C 111.636,360.491 119.636,359.657 127.5,358.5C 144.877,357.143 162.21,355.31 179.5,353C 216.936,313.632 240.769,267.132 251,213.5C 259.226,174.463 263.726,134.963 264.5,95C 264.508,82.794 263.841,70.6273 262.5,58.5C 231.483,41.1386 200.483,23.8053 169.5,6.5C 166.833,4.16667 164.167,1.83333 161.5,-0.5 Z"/></g>
<g><path style="opacity:1" fill="#f1727a" d="M 159.5,-0.5 C 160.167,-0.5 160.833,-0.5 161.5,-0.5C 164.167,1.83333 166.833,4.16667 169.5,6.5C 184.108,52.2655 194.941,98.9322 202,146.5C 205.299,172.737 206.299,199.07 205,225.5C 202.021,220.724 199.521,215.724 197.5,210.5C 198.165,207.183 198.499,203.683 198.5,200C 198,189.5 197.5,179 197,168.5C 190.012,110.888 177.512,54.5549 159.5,-0.5 Z"/></g>
<g><path style="opacity:1" fill="#c1292e" d="M 169.5,6.5 C 200.483,23.8053 231.483,41.1386 262.5,58.5C 263.841,70.6273 264.508,82.794 264.5,95C 263.726,134.963 259.226,174.463 251,213.5C 240.769,267.132 216.936,313.632 179.5,353C 162.21,355.31 144.877,357.143 127.5,358.5C 126.127,358.657 124.793,358.49 123.5,358C 150.231,345.9 170.065,326.733 183,300.5C 188.613,285.575 189.446,270.575 185.5,255.5C 182.114,240.857 176.28,227.19 168,214.5C 158.272,199.46 144.439,190.96 126.5,189C 98.359,187.492 73.0256,195.159 50.5,212C 27.9712,228.902 18.4712,251.402 22,279.5C 24.8771,298.285 34.0437,312.952 49.5,323.5C 55.1423,328.485 61.8089,331.652 69.5,333C 96.9741,336.517 116.807,326.017 129,301.5C 134.019,284.594 130.852,269.427 119.5,256C 116.935,253.92 114.268,252.087 111.5,250.5C 103.704,246.242 95.3706,244.742 86.5,246C 62.5787,253.562 55.7454,268.728 66,291.5C 61.1333,286.814 58.3,281.147 57.5,274.5C 56.4182,250.868 67.4182,236.034 90.5,230C 99.6934,228.97 108.693,229.803 117.5,232.5C 128.273,239.108 136.44,248.108 142,259.5C 153.189,297.62 140.689,324.787 104.5,341C 77.4364,349.425 53.7698,343.925 33.5,324.5C 5.16284,290.475 0.66284,253.475 20,213.5C 48.136,173.218 86.636,157.051 135.5,165C 142.56,167.076 149.56,169.243 156.5,171.5C 174.395,180.062 188.062,193.062 197.5,210.5C 199.521,215.724 202.021,220.724 205,225.5C 206.299,199.07 205.299,172.737 202,146.5C 194.941,98.9322 184.108,52.2655 169.5,6.5 Z"/></g>
<g><path style="opacity:1" fill="#f3757d" d="M 156.5,171.5 C 149.56,169.243 142.56,167.076 135.5,165C 86.636,157.051 48.136,173.218 20,213.5C 0.66284,253.475 5.16284,290.475 33.5,324.5C 32.7611,324.631 32.0944,324.464 31.5,324C 9.73184,303.959 -0.601497,279.126 0.5,249.5C 1.23014,230.472 7.39681,213.472 19,198.5C 47.3783,165.235 83.2117,152.068 126.5,159C 137.493,161.065 147.493,165.232 156.5,171.5 Z"/></g>
<g><path style="opacity:1" fill="#f2757d" d="M 117.5,232.5 C 108.693,229.803 99.6934,228.97 90.5,230C 67.4182,236.034 56.4182,250.868 57.5,274.5C 52.9329,263.218 53.7662,252.218 60,241.5C 76.6844,222.291 95.8511,219.291 117.5,232.5 Z"/></g>
<g><path style="opacity:1" fill="#f3747c" d="M 111.5,250.5 C 114.268,252.087 116.935,253.92 119.5,256C 130.852,269.427 134.019,284.594 129,301.5C 116.807,326.017 96.9741,336.517 69.5,333C 61.8089,331.652 55.1423,328.485 49.5,323.5C 75.5904,333.102 97.7571,327.436 116,306.5C 127.264,286.704 125.764,268.037 111.5,250.5 Z"/></g>
<g><path style="opacity:1" fill="#f2767e" d="M 185.5,255.5 C 189.446,270.575 188.613,285.575 183,300.5C 170.065,326.733 150.231,345.9 123.5,358C 124.793,358.49 126.127,358.657 127.5,358.5C 119.636,359.657 111.636,360.491 103.5,361C 116.287,356.939 128.287,351.272 139.5,344C 170.727,322.896 186.06,293.396 185.5,255.5 Z"/></g>
</svg>
