<svg xmlns="http://www.w3.org/2000/svg" xmlns:xlink="http://www.w3.org/1999/xlink" x="0px" y="0px" viewBox="0 0 64 64"
	 width="64" height="64" style="enable-background:new 0 0 64 64;" xml:space="preserve">
<style type="text/css">
	.st0{fill:#609926;}
</style>
	<g>
		<path class="st0" d="M64,17.5c-0.1-4.1-1.4-5-2.4-5.1h0c-10.4,0.6-16.6,0.8-22,0.9v0.3v0.3v11.6L38,24.6l0-10.7v-0.3v-0.3
			c-5.8,0-10.8-0.3-19.9-0.8l-1.8-0.1c-0.5,0-1.2-0.1-1.9-0.1c-0.9-0.1-2-0.1-3.1-0.2h0c-3.1,0-6.1,1.3-8.2,3.4
			c-2.2,2.2-3.2,5.4-3.1,9c0.2,6,2.8,10.3,7.5,12.8c2.8,1.5,6.4,2.3,10.6,2.5c0.8,2.8,6.5,11.4,10.9,11.9l19,0l0,0
			c2.3-0.2,6.9-2.2,11.5-13.6C62.3,31.3,64.1,22.8,64,17.5z M16.3,34.3c-5.3-0.7-10.1-2.5-11-9.5c-0.3-2.1,0.2-4,1.4-5.3
			c1.2-1.3,3.1-2,5.6-2c0.1,0,0.1,0,0.2,0C13.1,24.4,14.2,28.5,16.3,34.3z M46.8,29.8c1.4,0.7,2,2.4,1.3,3.7l-5.3,10.9
			c-0.7,1.4-2.4,2-3.7,1.3l-10.9-5.3c-1.4-0.7-2-2.4-1.3-3.7l5.3-10.9c0.7-1.4,2.4-2,3.7-1.3l2,1l-1.4,2.9c-0.2,0-0.4,0-0.6,0.1
			c-0.9,0.3-1.4,1.4-1.1,2.3c0.1,0.2,0.2,0.4,0.3,0.5l-2.4,5c-0.2,0-0.4,0-0.6,0.1c-0.9,0.3-1.4,1.4-1.1,2.3
			c0.3,0.9,1.4,1.4,2.3,1.1c0.9-0.3,1.4-1.4,1.1-2.3c-0.1-0.3-0.2-0.5-0.4-0.7l2.4-4.9c0.3,0,0.5,0,0.8-0.1c0.2-0.1,0.4-0.2,0.6-0.3
			c0.1,0,0.2,0.1,0.3,0.1c1.8,0.9,2.9,1.4,3.1,2c0.3,0.8-0.5,2.4-2,5.4c0,0,0,0.1,0,0.1c-0.2,0-0.4,0-0.7,0.1
			c-0.9,0.3-1.4,1.4-1.1,2.3c0.3,0.9,1.4,1.4,2.3,1.1c0.9-0.3,1.4-1.4,1.1-2.3c-0.1-0.2-0.2-0.4-0.4-0.6c0,0,0,0,0-0.1
			c1.8-3.6,2.5-5.2,2.1-6.5c-0.4-1.1-1.6-1.7-3.8-2.8c-0.1,0-0.2-0.1-0.3-0.1c0-0.2,0-0.5-0.1-0.7c-0.1-0.2-0.2-0.4-0.4-0.6L39,26
			L46.8,29.8z"/>
	</g>
</svg>
