<svg version="1.1" id="Layer_1" xmlns="http://www.w3.org/2000/svg" xmlns:xlink="http://www.w3.org/1999/xlink" x="0px" y="0px"
	 width="100%" viewBox="0 0 512 512" enable-background="new 0 0 512 512" xml:space="preserve">
<path fill="#282828" opacity="1.000000" stroke="none" 
	d="
M308.000000,513.000000 
	C205.358261,513.000000 103.216515,513.000000 1.037387,513.000000 
	C1.037387,342.399902 1.037387,171.799789 1.037387,1.099841 
	C171.558426,1.099841 342.116913,1.099841 512.837708,1.099841 
	C512.837708,171.666534 512.837708,342.333252 512.837708,513.000000 
	C444.799774,513.000000 376.649872,513.000000 308.000000,513.000000 
M165.127136,71.545509 
	C159.271667,72.734871 153.272705,73.454224 147.584320,75.190887 
	C113.984131,85.449043 101.498909,113.969543 103.180298,140.593781 
	C114.364517,140.593781 125.549507,140.593781 136.704712,140.593781 
	C137.776779,120.788986 146.068466,109.940285 163.029449,106.357773 
	C167.549454,105.403046 172.275513,105.062248 176.907837,105.055717 
	C236.222031,104.972099 295.536377,105.000374 354.850708,105.001617 
	C356.016754,105.001640 357.186310,104.962029 358.348267,105.035400 
	C368.773163,105.693672 373.997345,111.250771 373.997894,121.686333 
	C374.001221,182.333557 374.000031,242.980774 373.999115,303.627991 
	C373.998932,314.545105 370.740753,317.795593 359.645294,317.823975 
	C346.816162,317.856781 333.986877,317.823334 321.157684,317.843475 
	C319.741150,317.845703 318.324860,318.010315 317.191772,318.081757 
	C317.191772,329.689819 317.191772,340.758667 317.191772,351.842102 
	C333.031006,351.842102 348.534729,352.398468 363.984070,351.719086 
	C390.987793,350.531525 408.151093,332.051819 408.161194,305.036102 
	C408.183990,244.055649 408.178070,183.075195 408.143036,122.094765 
	C408.141052,118.609184 408.110382,115.065773 407.521698,111.647675 
	C403.424133,87.855179 383.158386,71.041916 358.449585,71.018646 
	C296.802734,70.960594 235.155807,70.994530 173.508911,71.017609 
	C171.017319,71.018547 168.525803,71.284752 165.127136,71.545509 
M347.240295,169.302933 
	C343.414215,161.801727 337.559692,156.257080 330.406708,152.012680 
	C319.413666,145.489685 307.293854,142.444153 294.716431,142.116241 
	C275.066132,141.603943 255.395248,141.875641 235.733032,141.835693 
	C234.449646,141.833084 233.165894,142.005005 231.729294,142.106567 
	C231.729294,196.796539 231.729294,251.221817 231.729294,305.708984 
	C244.709061,305.708984 257.437103,305.708984 270.630920,305.708984 
	C270.630920,287.492889 270.630920,269.568817 270.630920,251.176529 
	C276.218109,251.176529 281.366425,251.442505 286.476746,251.115112 
	C294.426117,250.605850 302.532196,250.510361 310.247223,248.786560 
	C327.968781,244.826889 342.607880,236.017670 349.176453,218.026321 
	C355.038849,201.969223 354.884979,185.746979 347.240295,169.302933 
M168.999161,256.500000 
	C168.944321,266.820770 168.983948,277.143127 168.812088,287.461945 
	C168.565231,302.283417 161.841995,312.781067 147.818222,318.273346 
	C146.797974,318.672882 145.863602,319.291718 144.638321,319.941711 
	C148.130341,329.119537 151.531708,338.059052 154.975616,347.110382 
	C155.996552,346.920959 156.663696,346.903931 157.245407,346.672333 
	C161.866348,344.832764 166.505203,343.031952 171.075073,341.071259 
	C196.451263,330.183655 208.052933,310.509399 208.016983,283.307129 
	C207.957581,238.352524 208.000854,193.397751 208.000854,148.443054 
	C208.000854,146.687271 208.000854,144.931473 208.000854,143.327179 
	C194.623505,143.327179 181.896545,143.327179 168.999146,143.327179 
	C168.999146,180.936630 168.999146,218.218323 168.999161,256.500000 
M249.581512,428.021149 
	C251.228470,428.021149 252.875412,428.021149 255.008408,428.021149 
	C255.008408,433.951355 255.008408,439.519287 255.008408,444.887970 
	C258.437958,444.887970 261.376190,444.887970 264.549469,444.887970 
	C264.549469,437.936188 264.549469,431.291504 264.549469,424.646820 
	C264.549469,418.048981 264.549469,411.451172 264.549469,404.727295 
	C260.985535,404.727295 258.081116,404.727295 254.762604,404.727295 
	C254.762604,409.912018 254.762604,414.833496 254.762604,419.829224 
	C250.602600,419.829224 246.868607,419.829224 242.664581,419.829224 
	C242.664581,414.629761 242.664581,409.728882 242.664581,404.693848 
	C239.255722,404.693848 236.327637,404.693848 233.260803,404.693848 
	C233.148544,405.546539 232.993561,406.178101 232.992859,406.809875 
	C232.978653,419.451569 232.982254,432.093262 232.982254,444.965088 
	C236.311203,444.965088 239.409332,444.965088 242.876541,444.965088 
	C242.876541,439.332672 242.876541,433.906189 242.876541,428.021149 
	C245.022949,428.021149 246.807495,428.021149 249.581512,428.021149 
M286.061371,407.458832 
	C279.236298,413.858917 278.756165,422.013000 279.907318,430.491882 
	C281.201538,440.024231 287.344208,445.760345 296.310699,446.165161 
	C306.444763,446.622681 312.930145,441.991455 315.188416,432.282806 
	C315.892029,429.257812 316.007935,426.035431 315.964050,422.909424 
	C315.863159,415.723053 313.749756,409.220734 306.922882,405.797180 
	C300.138824,402.395111 293.163544,402.592255 286.061371,407.458832 
M374.953979,406.288544 
	C365.951385,413.188965 365.660614,422.712891 367.706329,432.480530 
	C369.746643,442.222534 376.468384,446.686829 386.709625,446.162170 
	C395.389587,445.717468 401.629303,439.940826 402.923676,430.802338 
	C403.361298,427.712616 403.462830,424.498260 403.163788,421.394287 
	C401.694366,406.142181 389.664093,399.453308 374.953979,406.288544 
M198.566895,434.502594 
	C198.615463,429.890747 202.150543,432.106903 204.080185,431.960388 
	C212.835617,431.295685 218.144287,426.909088 218.846878,419.305023 
	C219.503876,412.194733 215.536850,406.367767 208.271545,405.290253 
	C201.943848,404.351807 195.451614,404.522644 188.721619,404.187897 
	C188.721619,418.202545 188.721619,431.437073 188.721619,444.823853 
	C192.003006,444.823853 195.196320,444.823853 198.562622,444.823853 
	C198.562622,441.451172 198.562622,438.458679 198.566895,434.502594 
M417.039490,419.273010 
	C419.477570,425.570129 425.407867,426.828583 430.829041,428.792206 
	C433.955811,429.924774 437.177582,431.266510 435.892151,435.353088 
	C434.717957,439.086060 431.174683,439.408264 428.000153,438.676697 
	C425.035980,437.993561 422.260468,436.491791 419.222687,435.278778 
	C417.799622,436.951233 416.341095,438.665436 414.765137,440.517578 
	C421.736572,446.397247 429.307404,447.515503 437.447876,445.117249 
	C443.058685,443.464264 446.195526,439.344910 446.451080,433.908356 
	C446.714081,428.312531 444.247650,424.291901 439.121948,422.061890 
	C436.088135,420.741943 432.771759,419.987854 429.909912,418.392029 
	C428.506104,417.609283 426.849243,415.262146 427.127472,414.036255 
	C427.418610,412.753876 429.956055,411.053619 431.402435,411.151398 
	C434.569092,411.365356 437.666687,412.601288 441.357178,413.567749 
	C442.389801,412.373199 443.852356,410.681335 445.335449,408.965698 
	C440.093872,403.778748 434.105804,403.177704 427.824951,403.937103 
	C419.640991,404.926605 415.753448,410.216827 417.039490,419.273010 
M126.245918,411.872284 
	C128.002945,411.872284 129.759979,411.872284 131.682419,411.872284 
	C131.990173,409.089111 132.219193,407.018127 132.466522,404.781342 
	C123.905548,404.781342 115.868698,404.781342 107.690338,404.781342 
	C107.690338,418.349091 107.690338,431.567444 107.690338,444.972961 
	C116.025284,444.972961 124.102219,444.972961 132.238937,444.972961 
	C132.238937,442.658051 132.238937,440.582184 132.238937,438.108551 
	C127.154648,438.108551 122.384552,438.108551 117.415253,438.108551 
	C117.415253,434.606812 117.415253,431.503052 117.415253,427.859619 
	C121.559341,427.859619 125.633141,427.859619 129.678543,427.859619 
	C129.678543,425.377106 129.678543,423.435120 129.678543,420.926758 
	C125.465828,420.926758 121.421997,420.926758 117.540405,420.926758 
	C117.540405,417.622314 117.540405,414.892456 117.540405,411.872284 
	C120.347649,411.872284 122.825844,411.872284 126.245918,411.872284 
M154.800171,416.321838 
	C154.800171,425.891357 154.800171,435.460876 154.800171,444.886230 
	C158.493896,444.886230 161.574738,444.886230 165.082245,444.886230 
	C165.082245,433.868011 165.082245,423.159393 165.082245,412.146484 
	C168.470062,412.146484 171.423996,412.146484 174.722076,412.146484 
	C174.955475,409.503021 175.163086,407.151764 175.380707,404.687103 
	C164.834244,404.687103 154.938629,404.687103 144.820374,404.687103 
	C144.820374,407.272705 144.820374,409.612640 144.820374,412.208466 
	C147.496307,412.208466 149.871399,411.889496 152.086121,412.346985 
	C153.146637,412.566101 153.903320,414.255951 154.800171,416.321838 
M352.904541,412.199371 
	C359.603516,412.773010 356.339417,407.681335 357.649353,404.743896 
	C347.020355,404.743896 336.967590,404.743896 326.683472,404.743896 
	C326.683472,407.287109 326.683472,409.532684 326.683472,412.198761 
	C330.174805,412.198761 333.437164,412.198761 337.046631,412.198761 
	C337.046631,423.365204 337.046631,434.116547 337.046631,444.895416 
	C340.483978,444.895416 343.563446,444.895416 347.088257,444.895416 
	C347.088257,433.879974 347.088257,423.164581 347.088257,412.199432 
	C349.020294,412.199432 350.506256,412.199432 352.904541,412.199371 
M91.018639,423.500458 
	C91.018639,417.263580 91.018639,411.026703 91.018639,404.905304 
	C87.363831,404.905304 84.344147,404.905304 81.142731,404.905304 
	C81.142731,415.639282 81.090263,425.924896 81.164856,436.209595 
	C81.202179,441.356781 81.219940,446.386169 75.088364,448.172821 
	C76.126007,450.861115 76.936417,452.960693 77.730217,455.017242 
	C88.147324,451.523438 90.999771,447.636444 91.017395,437.447540 
	C91.024857,433.131683 91.018639,428.815796 91.018639,423.500458 
z"/>
<path fill="#FFFFFF" opacity="1.000000" stroke="none" 
	d="
M165.580688,71.486435 
	C168.525803,71.284752 171.017319,71.018547 173.508911,71.017609 
	C235.155807,70.994530 296.802734,70.960594 358.449585,71.018646 
	C383.158386,71.041916 403.424133,87.855179 407.521698,111.647675 
	C408.110382,115.065773 408.141052,118.609184 408.143036,122.094765 
	C408.178070,183.075195 408.183990,244.055649 408.161194,305.036102 
	C408.151093,332.051819 390.987793,350.531525 363.984070,351.719086 
	C348.534729,352.398468 333.031006,351.842102 317.191772,351.842102 
	C317.191772,340.758667 317.191772,329.689819 317.191772,318.081757 
	C318.324860,318.010315 319.741150,317.845703 321.157684,317.843475 
	C333.986877,317.823334 346.816162,317.856781 359.645294,317.823975 
	C370.740753,317.795593 373.998932,314.545105 373.999115,303.627991 
	C374.000031,242.980774 374.001221,182.333557 373.997894,121.686333 
	C373.997345,111.250771 368.773163,105.693672 358.348267,105.035400 
	C357.186310,104.962029 356.016754,105.001640 354.850708,105.001617 
	C295.536377,105.000374 236.222031,104.972099 176.907837,105.055717 
	C172.275513,105.062248 167.549454,105.403046 163.029449,106.357773 
	C146.068466,109.940285 137.776779,120.788986 136.704712,140.593781 
	C125.549507,140.593781 114.364517,140.593781 103.180298,140.593781 
	C101.498909,113.969543 113.984131,85.449043 147.584320,75.190887 
	C153.272705,73.454224 159.271667,72.734871 165.580688,71.486435 
z"/>
<path fill="#FCFCFC" opacity="1.000000" stroke="none" 
	d="
M347.442017,169.616394 
	C354.884979,185.746979 355.038849,201.969223 349.176453,218.026321 
	C342.607880,236.017670 327.968781,244.826889 310.247223,248.786560 
	C302.532196,250.510361 294.426117,250.605850 286.476746,251.115112 
	C281.366425,251.442505 276.218109,251.176529 270.630920,251.176529 
	C270.630920,269.568817 270.630920,287.492889 270.630920,305.708984 
	C257.437103,305.708984 244.709061,305.708984 231.729294,305.708984 
	C231.729294,251.221817 231.729294,196.796539 231.729294,142.106567 
	C233.165894,142.005005 234.449646,141.833084 235.733032,141.835693 
	C255.395248,141.875641 275.066132,141.603943 294.716431,142.116241 
	C307.293854,142.444153 319.413666,145.489685 330.406708,152.012680 
	C337.559692,156.257080 343.414215,161.801727 347.442017,169.616394 
M270.517090,178.493118 
	C270.517090,193.222015 270.517090,207.950897 270.517090,222.994537 
	C276.409393,222.994537 281.712097,223.066147 287.012238,222.981033 
	C302.557983,222.731384 310.983887,215.060837 312.731201,199.657074 
	C314.354767,185.344116 308.844299,174.441925 297.012848,171.602921 
	C288.636902,169.593048 279.755707,169.688782 270.517059,168.787720 
	C270.517059,172.582901 270.517059,175.036957 270.517090,178.493118 
z"/>
<path fill="#FEFEFE" opacity="1.000000" stroke="none" 
	d="
M168.999146,256.000000 
	C168.999146,218.218323 168.999146,180.936630 168.999146,143.327179 
	C181.896545,143.327179 194.623505,143.327179 208.000854,143.327179 
	C208.000854,144.931473 208.000854,146.687271 208.000854,148.443054 
	C208.000854,193.397751 207.957581,238.352524 208.016983,283.307129 
	C208.052933,310.509399 196.451263,330.183655 171.075073,341.071259 
	C166.505203,343.031952 161.866348,344.832764 157.245407,346.672333 
	C156.663696,346.903931 155.996552,346.920959 154.975616,347.110382 
	C151.531708,338.059052 148.130341,329.119537 144.638321,319.941711 
	C145.863602,319.291718 146.797974,318.672882 147.818222,318.273346 
	C161.841995,312.781067 168.565231,302.283417 168.812088,287.461945 
	C168.983948,277.143127 168.944321,266.820770 168.999146,256.000000 
z"/>
<path fill="#F6F6F6" opacity="1.000000" stroke="none" 
	d="
M249.086777,428.021149 
	C246.807495,428.021149 245.022949,428.021149 242.876541,428.021149 
	C242.876541,433.906189 242.876541,439.332672 242.876541,444.965088 
	C239.409332,444.965088 236.311203,444.965088 232.982254,444.965088 
	C232.982254,432.093262 232.978653,419.451569 232.992859,406.809875 
	C232.993561,406.178101 233.148544,405.546539 233.260803,404.693848 
	C236.327637,404.693848 239.255722,404.693848 242.664581,404.693848 
	C242.664581,409.728882 242.664581,414.629761 242.664581,419.829224 
	C246.868607,419.829224 250.602600,419.829224 254.762604,419.829224 
	C254.762604,414.833496 254.762604,409.912018 254.762604,404.727295 
	C258.081116,404.727295 260.985535,404.727295 264.549469,404.727295 
	C264.549469,411.451172 264.549469,418.048981 264.549469,424.646820 
	C264.549469,431.291504 264.549469,437.936188 264.549469,444.887970 
	C261.376190,444.887970 258.437958,444.887970 255.008408,444.887970 
	C255.008408,439.519287 255.008408,433.951355 255.008408,428.021149 
	C252.875412,428.021149 251.228470,428.021149 249.086777,428.021149 
z"/>
<path fill="#F9F9F9" opacity="1.000000" stroke="none" 
	d="
M286.352112,407.232300 
	C293.163544,402.592255 300.138824,402.395111 306.922882,405.797180 
	C313.749756,409.220734 315.863159,415.723053 315.964050,422.909424 
	C316.007935,426.035431 315.892029,429.257812 315.188416,432.282806 
	C312.930145,441.991455 306.444763,446.622681 296.310699,446.165161 
	C287.344208,445.760345 281.201538,440.024231 279.907318,430.491882 
	C278.756165,422.013000 279.236298,413.858917 286.352112,407.232300 
M289.839966,422.717316 
	C290.137817,426.162994 290.168884,429.658997 290.806366,433.040649 
	C291.483185,436.630615 293.808777,438.937744 297.699585,438.966827 
	C301.844269,438.997833 304.449524,436.489166 304.853699,432.739319 
	C305.396118,427.706787 305.386261,422.544098 304.933624,417.498291 
	C304.598694,413.764557 302.230377,411.132202 298.041229,410.965271 
	C293.562836,410.786774 291.472046,413.504181 290.487305,417.395630 
	C290.124512,418.829285 290.054443,420.337036 289.839966,422.717316 
z"/>
<path fill="#F9F9F9" opacity="1.000000" stroke="none" 
	d="
M375.288666,406.117706 
	C389.664093,399.453308 401.694366,406.142181 403.163788,421.394287 
	C403.462830,424.498260 403.361298,427.712616 402.923676,430.802338 
	C401.629303,439.940826 395.389587,445.717468 386.709625,446.162170 
	C376.468384,446.686829 369.746643,442.222534 367.706329,432.480530 
	C365.660614,422.712891 365.951385,413.188965 375.288666,406.117706 
M377.443726,419.284668 
	C377.602234,423.726929 377.441040,428.211060 378.016205,432.598694 
	C378.512848,436.387268 380.937622,438.934753 385.086243,438.962067 
	C389.243195,438.989441 391.720154,436.463165 392.212067,432.675110 
	C392.803864,428.117950 393.075195,423.418915 392.648743,418.859558 
	C392.266388,414.771301 390.412781,411.059723 385.307526,410.962280 
	C380.267456,410.866058 378.441589,414.166443 377.443726,419.284668 
z"/>
<path fill="#F3F3F3" opacity="1.000000" stroke="none" 
	d="
M198.564758,434.984375 
	C198.562622,438.458679 198.562622,441.451172 198.562622,444.823853 
	C195.196320,444.823853 192.003006,444.823853 188.721619,444.823853 
	C188.721619,431.437073 188.721619,418.202545 188.721619,404.187897 
	C195.451614,404.522644 201.943848,404.351807 208.271545,405.290253 
	C215.536850,406.367767 219.503876,412.194733 218.846878,419.305023 
	C218.144287,426.909088 212.835617,431.295685 204.080185,431.960388 
	C202.150543,432.106903 198.615463,429.890747 198.564758,434.984375 
M208.393127,419.894012 
	C208.795456,412.806488 206.121826,410.755615 198.849106,412.510864 
	C198.849106,416.547516 198.849106,420.561615 198.849106,424.787811 
	C202.864014,424.731781 206.583817,425.083008 208.393127,419.894012 
z"/>
<path fill="#F9F9F9" opacity="1.000000" stroke="none" 
	d="
M416.978271,418.897797 
	C415.753448,410.216827 419.640991,404.926605 427.824951,403.937103 
	C434.105804,403.177704 440.093872,403.778748 445.335449,408.965698 
	C443.852356,410.681335 442.389801,412.373199 441.357178,413.567749 
	C437.666687,412.601288 434.569092,411.365356 431.402435,411.151398 
	C429.956055,411.053619 427.418610,412.753876 427.127472,414.036255 
	C426.849243,415.262146 428.506104,417.609283 429.909912,418.392029 
	C432.771759,419.987854 436.088135,420.741943 439.121948,422.061890 
	C444.247650,424.291901 446.714081,428.312531 446.451080,433.908356 
	C446.195526,439.344910 443.058685,443.464264 437.447876,445.117249 
	C429.307404,447.515503 421.736572,446.397247 414.765137,440.517578 
	C416.341095,438.665436 417.799622,436.951233 419.222687,435.278778 
	C422.260468,436.491791 425.035980,437.993561 428.000153,438.676697 
	C431.174683,439.408264 434.717957,439.086060 435.892151,435.353088 
	C437.177582,431.266510 433.955811,429.924774 430.829041,428.792206 
	C425.407867,426.828583 419.477570,425.570129 416.978271,418.897797 
z"/>
<path fill="#F2F2F2" opacity="1.000000" stroke="none" 
	d="
M125.774979,411.872284 
	C122.825844,411.872284 120.347649,411.872284 117.540405,411.872284 
	C117.540405,414.892456 117.540405,417.622314 117.540405,420.926758 
	C121.421997,420.926758 125.465828,420.926758 129.678543,420.926758 
	C129.678543,423.435120 129.678543,425.377106 129.678543,427.859619 
	C125.633141,427.859619 121.559341,427.859619 117.415253,427.859619 
	C117.415253,431.503052 117.415253,434.606812 117.415253,438.108551 
	C122.384552,438.108551 127.154648,438.108551 132.238937,438.108551 
	C132.238937,440.582184 132.238937,442.658051 132.238937,444.972961 
	C124.102219,444.972961 116.025284,444.972961 107.690338,444.972961 
	C107.690338,431.567444 107.690338,418.349091 107.690338,404.781342 
	C115.868698,404.781342 123.905548,404.781342 132.466522,404.781342 
	C132.219193,407.018127 131.990173,409.089111 131.682419,411.872284 
	C129.759979,411.872284 128.002945,411.872284 125.774979,411.872284 
z"/>
<path fill="#F5F5F5" opacity="1.000000" stroke="none" 
	d="
M154.798889,415.800781 
	C153.903320,414.255951 153.146637,412.566101 152.086121,412.346985 
	C149.871399,411.889496 147.496307,412.208466 144.820374,412.208466 
	C144.820374,409.612640 144.820374,407.272705 144.820374,404.687103 
	C154.938629,404.687103 164.834244,404.687103 175.380707,404.687103 
	C175.163086,407.151764 174.955475,409.503021 174.722076,412.146484 
	C171.423996,412.146484 168.470062,412.146484 165.082245,412.146484 
	C165.082245,423.159393 165.082245,433.868011 165.082245,444.886230 
	C161.574738,444.886230 158.493896,444.886230 154.800171,444.886230 
	C154.800171,435.460876 154.800171,425.891357 154.798889,415.800781 
z"/>
<path fill="#F5F5F5" opacity="1.000000" stroke="none" 
	d="
M352.448395,412.199402 
	C350.506256,412.199432 349.020294,412.199432 347.088257,412.199432 
	C347.088257,423.164581 347.088257,433.879974 347.088257,444.895416 
	C343.563446,444.895416 340.483978,444.895416 337.046631,444.895416 
	C337.046631,434.116547 337.046631,423.365204 337.046631,412.198761 
	C333.437164,412.198761 330.174805,412.198761 326.683472,412.198761 
	C326.683472,409.532684 326.683472,407.287109 326.683472,404.743896 
	C336.967590,404.743896 347.020355,404.743896 357.649353,404.743896 
	C356.339417,407.681335 359.603516,412.773010 352.448395,412.199402 
z"/>
<path fill="#F7F7F7" opacity="1.000000" stroke="none" 
	d="
M91.018639,424.000183 
	C91.018639,428.815796 91.024857,433.131683 91.017395,437.447540 
	C90.999771,447.636444 88.147324,451.523438 77.730217,455.017242 
	C76.936417,452.960693 76.126007,450.861115 75.088364,448.172821 
	C81.219940,446.386169 81.202179,441.356781 81.164856,436.209595 
	C81.090263,425.924896 81.142731,415.639282 81.142731,404.905304 
	C84.344147,404.905304 87.363831,404.905304 91.018639,404.905304 
	C91.018639,411.026703 91.018639,417.263580 91.018639,424.000183 
z"/>
<path fill="#292929" opacity="1.000000" stroke="none" 
	d="
M270.517090,177.992065 
	C270.517059,175.036957 270.517059,172.582901 270.517059,168.787720 
	C279.755707,169.688782 288.636902,169.593048 297.012848,171.602921 
	C308.844299,174.441925 314.354767,185.344116 312.731201,199.657074 
	C310.983887,215.060837 302.557983,222.731384 287.012238,222.981033 
	C281.712097,223.066147 276.409393,222.994537 270.517090,222.994537 
	C270.517090,207.950897 270.517090,193.222015 270.517090,177.992065 
z"/>
<path fill="#2C2C2C" opacity="1.000000" stroke="none" 
	d="
M289.845428,422.264160 
	C290.054443,420.337036 290.124512,418.829285 290.487305,417.395630 
	C291.472046,413.504181 293.562836,410.786774 298.041229,410.965271 
	C302.230377,411.132202 304.598694,413.764557 304.933624,417.498291 
	C305.386261,422.544098 305.396118,427.706787 304.853699,432.739319 
	C304.449524,436.489166 301.844269,438.997833 297.699585,438.966827 
	C293.808777,438.937744 291.483185,436.630615 290.806366,433.040649 
	C290.168884,429.658997 290.137817,426.162994 289.845428,422.264160 
z"/>
<path fill="#2C2C2C" opacity="1.000000" stroke="none" 
	d="
M377.541748,418.872925 
	C378.441589,414.166443 380.267456,410.866058 385.307526,410.962280 
	C390.412781,411.059723 392.266388,414.771301 392.648743,418.859558 
	C393.075195,423.418915 392.803864,428.117950 392.212067,432.675110 
	C391.720154,436.463165 389.243195,438.989441 385.086243,438.962067 
	C380.937622,438.934753 378.512848,436.387268 378.016205,432.598694 
	C377.441040,428.211060 377.602234,423.726929 377.541748,418.872925 
z"/>
<path fill="#3A3A3A" opacity="1.000000" stroke="none" 
	d="
M208.299408,420.265930 
	C206.583817,425.083008 202.864014,424.731781 198.849106,424.787811 
	C198.849106,420.561615 198.849106,416.547516 198.849106,412.510864 
	C206.121826,410.755615 208.795456,412.806488 208.299408,420.265930 
z"/>
</svg>