<!--<svg xmlns="http://www.w3.org/2000/svg"	viewBox="0 0 1000 1000" style="enable-background:new 0 0 1000 1000;">-->
<svg version="1.1" xmlns="http://www.w3.org/2000/svg" viewBox="0 0 1000 1000">
<path style="fill:#ba0000" d="M442.2,712.8l-36-97.6c0,0-58.4,65.1-145.8,65.1c-77.5,0-132.4-67.4-132.4-175.1c0-138,69.7-187.4,138-187.4c98.8,0,130.2,63.9,157.1,145.8l36,112.2c36,108.9,103.4,196.4,297.4,196.4c139.1,0,233.5-42.7,233.5-154.8c0-90.9-51.7-138-148.1-160.6l-71.8-15.7c-49.4-11.3-63.9-31.4-63.9-65.1c0-38.1,30.2-60.7,79.6-60.7c54,0,83.1,20.3,87.5,68.5l112.2-13.4c-9-101.1-78.7-142.6-193.1-142.6c-101.1,0-199.8,38.1-199.8,160.6c0,76.4,37.1,124.6,130.2,147l76.4,18c57.2,13.4,76.4,37.1,76.4,69.7c0,41.5-40.4,58.4-116.8,58.4c-113.3,0-160.6-59.5-187.4-141.5l-37.1-112.2c-46.9-146-122.1-199.8-271.4-199.8C97.7,227.9,10,332.2,10,509.7c0,170.5,87.5,262.6,244.8,262.6C381.5,772.3,442.2,712.7,442.2,712.8L442.2,712.8L442.2,712.8z"/>
<!--path style="fill:#ba0000" d="M825.4,10H174.6C84.1,10,10,84.1,10,174.6v650.8C10,915.9,84.1,990,174.6,990h650.8c90.5,0,164.6-74.1,164.6-164.6V174.6C990,84.1,915.9,10,825.4,10z M724.4,738.2c-169.9,0-228.9-76.6-260.3-171.9l-31.4-98.2c-23.6-71.7-51.1-127.7-137.5-127.7c-59.9,0-120.8,43.2-120.8,164c0,94.3,48.1,153.2,115.9,153.2c76.6,0,127.7-57,127.7-57l31.4,85.5c0,0-53.1,52.1-164,52.1c-137.5,0-214.1-80.5-214.1-229.8c0-155.2,76.6-246.5,221-246.5c130.6,0,196.5,47.1,237.7,174.8l32.4,98.2c23.6,71.7,64.8,123.8,164,123.8c66.8,0,102.1-14.7,102.1-51.1c0-28.5-16.7-49.1-66.8-60.9L695,530.9C613.5,511.3,581,469.1,581,402.3c0-107.1,86.4-140.5,174.8-140.5c100.2,0,161.1,36.3,169,124.7l-98.2,11.8c-3.9-42.2-29.5-59.9-76.6-59.9c-43.2,0-69.7,19.6-69.7,53c0,29.5,12.8,47.1,56,57l62.9,13.7c84.5,19.6,129.7,60.9,129.7,140.5C928.8,700.9,846.2,738.2,724.4,738.2z"/>-->
</svg>