<svg version="1.1" xmlns="http://www.w3.org/2000/svg" viewBox="0 0 1000 1000">
<path style="fill:#ba0000" d="M442.2,712.8l-36-97.6c0,0-58.4,65.1-145.8,65.1c-77.5,0-132.4-67.4-132.4-175.1c0-138,69.7-187.4,138-187.4c98.8,0,130.2,63.9,157.1,145.8l36,112.2c36,108.9,103.4,196.4,297.4,196.4c139.1,0,233.5-42.7,233.5-154.8c0-90.9-51.7-138-148.1-160.6l-71.8-15.7c-49.4-11.3-63.9-31.4-63.9-65.1c0-38.1,30.2-60.7,79.6-60.7c54,0,83.1,20.3,87.5,68.5l112.2-13.4c-9-101.1-78.7-142.6-193.1-142.6c-101.1,0-199.8,38.1-199.8,160.6c0,76.4,37.1,124.6,130.2,147l76.4,18c57.2,13.4,76.4,37.1,76.4,69.7c0,41.5-40.4,58.4-116.8,58.4c-113.3,0-160.6-59.5-187.4-141.5l-37.1-112.2c-46.9-146-122.1-199.8-271.4-199.8C97.7,227.9,10,332.2,10,509.7c0,170.5,87.5,262.6,244.8,262.6C381.5,772.3,442.2,712.7,442.2,712.8L442.2,712.8L442.2,712.8z"/>
</svg>
