<?xml version="1.0" standalone="no"?>
<!DOCTYPE svg PUBLIC "-//W3C//DTD SVG 1.1//EN" "http://www.w3.org/Graphics/SVG/1.1/DTD/svg11.dtd" >
<svg xmlns="http://www.w3.org/2000/svg" xmlns:xlink="http://www.w3.org/1999/xlink" version="1.1" viewBox="-10 0 522 512">
   <path fill="currentColor"
d="M248 226q-3 23 -3 30q-5 46 -7 54q-10 35 -29 61q-21 27 -50 33q-34 7 -57 -18q-15 -16 -24 -44q-9 -30 -12 -68q-2 -33 0 -63q9 -93 60 -154q34 -41 83 -53q22 -6 50 -3q34 3 60 17q42 22 54 62q17 63 -33 109q-27 25 -70 33q-3 1 -22 4zM199 225q-18 -9 -19 -10
q-8 -5 -18 -12q-6 -5 -7 -11q-2 -12 1 -23q3 -12 14 -6q15 9 20 11l9 4l1 -2v-5q2 -23 9 -44q5 -16 16 -25q13 -13 34 -7q13 3 11 18q0 2 -2 6q-10 34 -12 41q-1 4 -2.5 11t-1.5 8q1 0 4.5 -0.5t4.5 -0.5q28 -4 46 -18q23 -17 24 -45t-18 -43q-8 -7 -19 -13q-21 -11 -55 -13
q-26 0 -49 15q-21 13 -36 38q-26 42 -32 94q-3 24 -5 62q-1 33 3 62q3 18 11 31q6 11 17 11.5t17 -5.5q7 -8 11 -15q6 -11 10 -24q7 -24 11 -61q0 -1 2 -29zM350 355q4 1 13 5t25 3q18 -1 35 -9q-4 11 -10 31q-12 4 -29 3q-5 0 -29 -2q1 2 3 11q5 28 1 44q-7 35 -29 58
q-7 7 -16 11q-11 4 -21.5 -0.5t-14.5 -16.5q-5 -11 -4 -27q1 -24 9 -50q24 -79 54 -138q15 -29 31 -50q13 -16 26 -24t26 -7q14 1 21.5 11t5.5 23q-3 12 -9 24q-15 26 -42 56q-22 24 -44 41q0 1 -1 1zM304 481q8 3 12 -3q6 -9 9 -17q8 -22 9 -55q0 -6 -1 -25q0 -6 -3 -8
q-1 0 -2.5 3t-1.5 4q-13 34 -18 61q-2 12 -5 32zM353 323q43 -50 47 -54q5 -5 15 -19q5 -7 5 -16q-1 -6 -6 -7q-7 -2 -11 2l-6 6q-18 26 -30 48q-9 20 -14 40z" />
</svg>
