<svg xmlns="http://www.w3.org/2000/svg" width="920" height="253" viewBox="0 0 920 253"><path d="M149.78,43.61q-6.75-11.38-19.95-18T97.7,18.93A89.35,89.35,0,0,0,48.65,33.14Q26.39,47.33,13.19,75.84T0,145.23Q0,167,6.25,181.89t16.61,22.16a38.7,38.7,0,0,0,22.67,7.25q22.35,0,27.39-28l8.67-48.54q23.37-1.6,40.29-10.68t25.78-23.36a58.52,58.52,0,0,0,8.87-31.43A49.39,49.39,0,0,0,149.78,43.61ZM85.21,114l6.65-39.08a27.42,27.42,0,0,0,.4-5.23q0-5.45-2.92-8c-2-1.68-5.13-2.52-9.57-2.52A17.82,17.82,0,0,0,69.6,62.14q-4.34,2.92-5.54,9.77-4.83,26.4-7.45,42.1c-1.75-.13-4.23-.47-7.46-1a17.11,17.11,0,0,0-3-.2,9.22,9.22,0,0,0-7,2.62,9.75,9.75,0,0,0-2.52,7,12.27,12.27,0,0,0,1.82,6.95c1.21,1.81,3.82,3.06,7.85,3.73q-1-.19,6.85,1l-6.64,38.08q-2.62,13.89-7.66,13.89c-2.42,0-4.93-1.77-7.56-5.33s-4.76-8.56-6.44-15a88.19,88.19,0,0,1-2.52-22.16q0-29.81,8.36-53.08T54.49,54.19a54.12,54.12,0,0,1,36.16-13.1q18.33,0,27.1,8.36t8.76,21.66Q126.51,108.78,85.21,114Z"/><path d="M176.87,82.18q8.65,0,13.9-4.73T196,64.66q0-6.64-4.63-10.27t-12.09-3.63a20.52,20.52,0,0,0-13.8,4.73A14.88,14.88,0,0,0,160,67.28q0,7.05,4.23,11T176.87,82.18Z"/><path d="M918.49,146.84a4.66,4.66,0,0,0-4.13-2.41,7.06,7.06,0,0,0-5.44,2.82A122.19,122.19,0,0,1,893.21,163a24.06,24.06,0,0,1-15.31,5.24q-10.68,0-15.62-8.46t-4.93-29.41q0-5.64.4-15.72h24.58q22.75,0,22.76-13.89,0-3.82-1.41-5.24t-4.63-1.41H876.49q26.18-23.16,26.19-54.39,0-11.28-4.84-18.73t-13.3-7.45q-11.47,0-21.45,10.87t-17,29.21a195.89,195.89,0,0,0-10.48,40.49H824.11q-9.06,0-9.07,11.28,0,4.83,2.12,7.05c1.41,1.48,4.13,2.21,8.16,2.21h7.86q-.42,6.26-.54,12.41a5.4,5.4,0,0,0-1.07-.12,7.71,7.71,0,0,0-5.44,2.62q-8.86,8.86-14.51,8.86c-3.36,0-5-2.34-5-7a73.17,73.17,0,0,1,1.61-10.07Q810,111.2,810,108.57q0-13.09-13.09-13.09-6.64,0-14.61,4.63T766.1,115.62q-8.26,10.88-14.91,28.2a144.49,144.49,0,0,1,2-14.9q1.21-6,3.23-14.1,3-11.28,3-14.51c0-1.88-.54-3.15-1.61-3.82s-3-1-5.64-1q-7.46,0-11.59,2.72a15.17,15.17,0,0,0-5.94,8.56,155.72,155.72,0,0,0-5.35,22.74,106.44,106.44,0,0,1-16,2.44q-1.62-15.51-11-26.09T677.66,95.28A40.56,40.56,0,0,0,654.9,102a45.93,45.93,0,0,0-16.12,18.73,56.45,56.45,0,0,0-4.48,13.34,119.12,119.12,0,0,1-13.65.86,40,40,0,0,1-4.23-.2q-5.64-.4-9.67-.4c-1.48,0-3.15,1-5,3a27.32,27.32,0,0,0-4.74,7.05,13.72,13.72,0,0,0-1.71,6.64q3.63,16.32,5.74,31a213.39,213.39,0,0,1,2.12,30.41q0,21-6,21-3.23,0-4.63-21.86T591,169q0-14.9,2-34.64,56.61-55.8,56.61-103.14,0-14.29-5.34-22.76T629.52,0Q612,0,597.38,26.09T574.42,92q-3.95,18.78-6,37.31a141.8,141.8,0,0,1-19.66,2.88q4.83-11.68,4.83-20.75,0-7.85-3.63-12a12,12,0,0,0-9.46-4.13,19,19,0,0,0-11.89,4,27.87,27.87,0,0,0-8.26,10.47,31.07,31.07,0,0,0-3,13.3,29.9,29.9,0,0,0,3,13.89q-6,10.68-18.13,28.61-2.82-37.07-2.82-60.23,0-5.64-2.11-7.86t-7.56-2.21a13.14,13.14,0,0,0-7.55,2.11q-3.14,2.11-5.34,8.16-11.49,31.23-25.18,60-2.82-37.07-2.82-60.23c0-3.63-.84-6.21-2.52-7.76s-4.27-2.31-7.76-2.31q-6.84,0-10.27,2.62t-3.63,9.26v7c0,4.8.1,9.9.29,15.25a107.24,107.24,0,0,1-16.2,2.48q-1.61-15.51-11-26.09T373.08,95.28A40.59,40.59,0,0,0,350.31,102a45.84,45.84,0,0,0-16.11,18.73,61.44,61.44,0,0,0-5.85,27.29,54.11,54.11,0,0,0,.57,7.82,71.61,71.61,0,0,1-8.22,7.59,23.32,23.32,0,0,1-14.5,4.74,10.9,10.9,0,0,1-8.46-3.53q-3.23-3.53-4.64-11.78a307.35,307.35,0,0,0,36.06-62.65q13.3-31.62,13.3-55.59,0-16.72-5.54-25.69T321.71,0Q304.58,0,292.2,22.56t-18.74,54q-6.34,31.42-6.34,56a123.53,123.53,0,0,0,1.19,17.78q-7.9,9.06-13.28,13.14a23.32,23.32,0,0,1-14.5,4.74,10.9,10.9,0,0,1-8.46-3.53q-3.23-3.53-4.64-11.78a307.35,307.35,0,0,0,36.06-62.65q13.31-31.62,13.3-55.59,0-16.72-5.54-25.69T256,0q-17.13,0-29.51,22.56t-18.74,54q-6.34,31.42-6.34,56a124.08,124.08,0,0,0,1.2,17.83,158.16,158.16,0,0,1-11.88,12.79q-5.45,5-9.06,5a5.6,5.6,0,0,1-5.44-3.23q-1.62-3.21-1.62-9.26,0-7.86,4.84-30,3.82-18.31,3.83-23.36,0-6.85-10.28-6.85-6.64,0-9.67,2.42t-4.83,8.86a215.77,215.77,0,0,0-5.94,26.49,149.78,149.78,0,0,0-2.32,23.26q0,15.31,5.94,24.58t19,9.26q15.5,0,33.09-19.52c.53,1.17,1.07,2.31,1.66,3.41q8.55,16.11,26.29,16.11a40.38,40.38,0,0,0,23.06-6.84A83.1,83.1,0,0,0,274,170.81c.53,1.18,1.08,2.32,1.67,3.43q8.55,16.11,26.29,16.11A40.38,40.38,0,0,0,325,183.51,80.5,80.5,0,0,0,336,174.62a36.56,36.56,0,0,0,9.83,9.89q8.57,5.85,20.65,5.84,14.29,0,25.58-10.17t15.11-27.09a97.24,97.24,0,0,0,18.93-2.59q.43,6.33,1,13.06,1.21,13.91,5.94,20.35a15.25,15.25,0,0,0,13,6.44,19.75,19.75,0,0,0,11.58-3.42q4.94-3.42,9.87-12.29t11.18-25.78l1,14.7q1,14.31,5.14,20.55T497,190.35a21.37,21.37,0,0,0,13-4.23q5.73-4.23,13.8-15.71,7.05-10.07,12.89-19.54a56.61,56.61,0,0,0,16.72,2.42,65.8,65.8,0,0,0,13.17-1.3q-.48,9.24-.48,18.42,0,41.49,6.14,62T592.85,253q11.49,0,18.54-11.48t7.05-33.24a233.1,233.1,0,0,0-1.72-25.08Q615,168,612.39,155.51a76.68,76.68,0,0,0,13.9,1.81,59.65,59.65,0,0,0,7.38-.43,48,48,0,0,0,3.7,12.11,37.09,37.09,0,0,0,13,15.51q8.55,5.85,20.64,5.84,14.31,0,25.59-10.17t15.11-27.09a99.73,99.73,0,0,0,15.59-1.85c0,1.75-.08,3.51-.08,5.27q0,17.73,3.12,25.79t10.78,8q6.24,0,9.16-3.32t5.14-12.79a143.83,143.83,0,0,1,7.86-23.37,94.12,94.12,0,0,1,9.77-17.82c3.28-4.5,5.94-6.75,8-6.75,1.48,0,2.22,1.07,2.22,3.22,0,.94-.14,2.76-.4,5.44a30.19,30.19,0,0,0-.61,6q0,9.27,5.54,14.71T804,161.15A32.9,32.9,0,0,0,820,157a54.56,54.56,0,0,0,13.2-10,.93.93,0,0,1,.13-.15q4.74,43.44,40.36,43.45a41.56,41.56,0,0,0,23.57-6.84A85.83,85.83,0,0,0,916.17,166q3.83-4.42,3.83-12.49A12.5,12.5,0,0,0,918.49,146.84Zm-53.18-85.5q3.32-13.4,7.05-21t6.75-7.56q4.42,0,4.43,11.89,0,10.47-5.95,23.26a68.8,68.8,0,0,1-17.82,23.07A277.77,277.77,0,0,1,865.31,61.34ZM605.74,64.76Q611,44.51,616.32,32.23t9-12.29q5,0,5,12.29-.2,17.33-8.86,37.16a147.14,147.14,0,0,1-24.78,38.17Q600.51,85,605.74,64.76ZM230.86,78.16q4.42-24.78,10.27-41.5t10.48-16.72q5.64,0,5.64,15.31,0,19.55-8.46,43.21A259.14,259.14,0,0,1,226,125.69,299.78,299.78,0,0,1,230.86,78.16Zm65.67,0Q301,53.38,306.8,36.66t10.48-16.72q5.63,0,5.64,15.31,0,19.55-8.46,43.21a259.14,259.14,0,0,1-22.77,47.23A299.78,299.78,0,0,1,296.53,78.16Zm82.69,85.61A14.61,14.61,0,0,1,368,169q-5.85,0-10.17-5.84t-4.33-16.92q0-14.1,5.33-21.86t13.4-7.75h1a34.35,34.35,0,0,0-.61,6.45,32.72,32.72,0,0,0,3.33,14.5,27.69,27.69,0,0,0,9.57,11.08Q384,158.53,379.22,163.77Zm304.59,0A14.62,14.62,0,0,1,672.63,169q-5.85,0-10.18-5.84t-4.33-16.92q0-14.1,5.34-21.86t13.4-7.75h1a35.19,35.19,0,0,0-.6,6.45,32.85,32.85,0,0,0,3.32,14.5,27.84,27.84,0,0,0,9.57,11.08Q688.55,158.53,683.81,163.77Z"/></svg>