<svg width="250" height="250" viewBox="79 96 200 220" fill="none" xmlns="http://www.w3.org/2000/svg">
<style type="text/css">
	.st0{fill:#3A76F0;}
</style>
<g>
	<path class="st0" d="M155.2,109.9l2.2,9c-8.8,2.2-17.1,5.6-24.9,10.3l-4.8-8C136.3,116.1,145.6,112.3,155.2,109.9z M202.8,109.9
		l-2.2,9c8.8,2.2,17.1,5.6,24.9,10.3l4.8-8C221.7,116.1,212.4,112.3,202.8,109.9L202.8,109.9z M94.2,154.8
		c-5.1,8.5-9,17.8-11.3,27.4l9,2.2c2.2-8.8,5.6-17.1,10.3-24.9L94.2,154.8z M89.3,206c0-4.5,0.3-9,1-13.4l-9.2-1.4
		c-1.5,9.8-1.5,19.8,0,29.7l9.2-1.4C89.6,215,89.3,210.5,89.3,206L89.3,206z M230.2,290.8l-4.8-8c-7.7,4.7-16.1,8.1-24.8,10.3l2.2,9
		C212.4,299.7,221.7,295.9,230.2,290.8L230.2,290.8z M268.7,206c0,4.5-0.3,9-1,13.4l9.2,1.4c1.5-9.8,1.5-19.8,0-29.7l-9.2,1.4
		C268.4,197,268.7,201.5,268.7,206z M275.1,229.8l-9-2.2c-2.2,8.8-5.6,17.1-10.3,24.9l8,4.8C268.9,248.7,272.7,239.4,275.1,229.8
		L275.1,229.8z M192.4,294.7c-8.9,1.3-18,1.3-26.9,0l-1.4,9.2c9.8,1.5,19.8,1.5,29.7,0L192.4,294.7z M251.2,259.2
		c-5.4,7.2-11.8,13.6-19,19l5.5,7.5c8-5.9,15.1-12.9,21-20.9L251.2,259.2z M232.2,133.8c7.3,5.3,13.7,11.8,19,19l7.5-5.6
		c-5.9-8-12.9-15-20.9-20.9L232.2,133.8z M106.8,152.8c5.3-7.3,11.8-13.7,19-19l-5.6-7.5c-8,5.9-15,12.9-20.9,20.9L106.8,152.8z
		 M263.8,154.8l-8,4.8c4.7,7.7,8.1,16.1,10.3,24.8l9-2.2C272.7,172.6,268.9,163.3,263.8,154.8L263.8,154.8z M165.6,117.3
		c8.9-1.3,18-1.3,26.9,0l1.4-9.2c-9.8-1.5-19.8-1.5-29.7,0L165.6,117.3z M111.5,288.1l-19.2,4.5l4.5-19.2l-9-2.1l-4.5,19.2
		c-0.7,3.1,0.2,6.4,2.5,8.7c2.3,2.3,5.6,3.2,8.7,2.5l19.2-4.4L111.5,288.1z M89.7,263.1l9,2.1l3.1-13.3c-4.5-7.6-7.9-15.8-10-24.3
		l-9,2.2c2,8.2,5.1,16.1,9.1,23.5L89.7,263.1z M133.1,283.2l-13.3,3.1l2.1,9l9.8-2.3c7.4,4,15.3,7.1,23.5,9.1l2.2-9
		C148.9,291,140.7,287.6,133.1,283.2L133.1,283.2z M179,125.6c-29.3,0-56.2,15.9-70.4,41.5s-13.3,56.9,2.3,81.7l-7.7,33l33-7.7
		c28.9,18.2,66.2,16.2,93-5.2s37.1-57.2,25.8-89.5C243.7,147.1,213.2,125.5,179,125.6z"/>
</g>
</svg>
