<?xml version="1.0" encoding="utf-8"?>
<!-- Generator: Adobe Illustrator 25.4.1, SVG Export Plug-In . SVG Version: 6.00 Build 0)  -->
<svg version="1.1" id="Ebene_1" xmlns="http://www.w3.org/2000/svg" xmlns:xlink="http://www.w3.org/1999/xlink" x="0px" y="0px"
	 viewBox="0 0 720 720" style="enable-background:new 0 0 720 720;" xml:space="preserve">
<style type="text/css">
	.st0{fill:#1D4ED8;}
	.st1{fill-rule:evenodd;clip-rule:evenodd;fill:#1D4ED8;}
</style>
<rect x="402.8" y="425" class="st0" width="302.2" height="259.9"/>
<circle vector-effect="non-scaling-stroke" class="st0" cx="553.9" cy="429.9" r="151.1"/>
<circle vector-effect="non-scaling-stroke" class="st0" cx="553.9" cy="144.8" r="109.7"/>
<path class="st1" d="M174.2,180.3H383v140.6c0,87.8-71.3,159.2-159.2,159.2h-49.7C86.3,480,15,412.9,15,330.2l0,0
	C15,247.4,86.3,180.3,174.2,180.3z M107.5,272.3L107.5,272.3v28.9l0,0c2.5-2.9,4.9-5.1,7.2-6.8l0,0l0,0c2.4-1.7,5-2.9,7.8-3.7l0,0
	l0,0c2.9-0.8,5.9-1.3,9.2-1.3l0,0l0,0c5,0,9.3,1,13.2,3.1l0,0l0,0c3.8,2.1,6.8,5.1,9,9.1l0,0l0,0c1.4,2.3,2.3,4.9,2.8,7.8l0,0l0,0
	c0.5,2.9,0.7,6.2,0.7,10l0,0v37.3l0,0c0,3.9-0.9,6.9-2.7,8.9l0,0l0,0c-1.8,2-4.2,3-7.1,3l0,0l0,0c-6.4,0-9.6-4-9.6-11.9l0,0v-32.9
	l0,0c0-6.2-0.9-11-2.8-14.4l0,0l0,0c-1.9-3.4-5.4-5-10.6-5l0,0l0,0c-3.5,0-6.6,1-9.4,3l0,0l0,0c-2.8,2-4.9,4.7-6.2,8.1l0,0l0,0
	c-1,2.9-1.6,8.1-1.6,15.5l0,0v25.8l0,0c0,3.9-0.9,6.8-2.6,8.8l0,0l0,0c-1.7,2-4.2,3-7.2,3l0,0l0,0c-6.4,0-9.6-4-9.6-11.9l0,0v-84.5
	l0,0c0-4,0.8-6.9,2.5-8.9l0,0l0,0c1.7-2,4.1-3,7.1-3l0,0l0,0c3.1,0,5.5,1,7.2,3l0,0l0,0C106.6,265.4,107.5,268.4,107.5,272.3
	L107.5,272.3z M193,322.7L193,322.7h35.3l0,0c-0.5-6.7-2.3-11.7-5.4-15l0,0l0,0c-3.1-3.3-7.2-5-12.3-5l0,0l0,0c-4.9,0-8.8,1.7-12,5
	l0,0l0,0C195.6,311.2,193.7,316.2,193,322.7L193,322.7z M277.8,371.1L277.8,371.1l1.8-4.4l-24-60.4l0,0c-1.5-3.5-2.2-6-2.2-7.6l0,0
	l0,0c0-1.7,0.4-3.2,1.3-4.6l0,0l0,0c0.9-1.4,2-2.6,3.5-3.4l0,0l0,0c1.5-0.9,3.1-1.3,4.7-1.3l0,0l0,0c2.8,0,4.9,0.9,6.4,2.7l0,0l0,0
	c1.4,1.8,2.7,4.3,3.8,7.7l0,0l16.5,48l15.6-44.6l0,0c1.2-3.6,2.4-6.4,3.4-8.5l0,0l0,0c1-2,2.1-3.4,3.2-4.1l0,0l0,0
	c1.1-0.7,2.7-1.1,4.7-1.1l0,0l0,0c1.5,0,2.9,0.4,4.2,1.2l0,0l0,0c1.4,0.8,2.4,1.8,3.1,3.2l0,0l0,0c0.7,1.3,1.1,2.7,1.1,4.2l0,0l0,0
	c-0.2,0.9-0.5,2.2-0.9,3.9l0,0l0,0c-0.4,1.7-1,3.4-1.6,5.1l0,0L297,373.4l0,0c-2.2,5.9-4.3,10.4-6.4,13.8l0,0l0,0
	c-2.1,3.3-4.9,5.9-8.3,7.7l0,0l0,0c-3.5,1.8-8.1,2.7-14,2.7l0,0l0,0c-5.7,0-10-0.6-12.8-1.9l0,0l0,0c-2.9-1.2-4.3-3.5-4.3-6.8l0,0
	l0,0c0-2.2,0.7-4,2-5.2l0,0l0,0c1.4-1.2,3.4-1.8,6-1.8l0,0l0,0c1,0,2.1,0.1,3.1,0.4l0,0l0,0c1.2,0.3,2.3,0.4,3.2,0.4l0,0l0,0
	c2.2,0,4-0.3,5.3-1l0,0l0,0c1.3-0.7,2.4-1.8,3.5-3.5l0,0l0,0C275.3,376.7,276.5,374.3,277.8,371.1L277.8,371.1z M231.1,333.8
	L231.1,333.8H193l0,0c0,4.4,0.9,8.3,2.7,11.7l0,0l0,0c1.7,3.4,4,5.9,6.9,7.6l0,0l0,0c2.9,1.7,6.1,2.6,9.5,2.6l0,0l0,0
	c2.3,0,4.5-0.3,6.4-0.8l0,0l0,0c1.9-0.5,3.8-1.4,5.6-2.6l0,0l0,0c1.8-1.2,3.5-2.4,5-3.7l0,0l0,0c1.5-1.3,3.5-3.1,5.9-5.4l0,0l0,0
	c1-0.9,2.4-1.3,4.3-1.3l0,0l0,0c2,0,3.6,0.5,4.9,1.6l0,0l0,0c1.2,1.1,1.9,2.6,1.9,4.6l0,0l0,0c0,1.8-0.7,3.8-2.1,6.2l0,0l0,0
	c-1.4,2.4-3.5,4.6-6.2,6.8l0,0l0,0c-2.8,2.2-6.3,4-10.5,5.4l0,0l0,0c-4.2,1.4-9.1,2.1-14.5,2.1l0,0l0,0c-12.5,0-22.3-3.6-29.2-10.7
	l0,0l0,0c-6.9-7.1-10.4-16.8-10.4-29.1l0,0l0,0c0-5.8,0.9-11.1,2.6-16l0,0l0,0c1.7-4.9,4.2-9.1,7.5-12.7l0,0l0,0
	c3.3-3.5,7.3-6.2,12.1-8.1l0,0l0,0c4.8-1.9,10.1-2.8,16-2.8l0,0l0,0c7.6,0,14.1,1.6,19.6,4.8l0,0l0,0c5.4,3.2,9.5,7.4,12.2,12.5l0,0
	l0,0c2.7,5.1,4.1,10.3,4.1,15.6l0,0l0,0c0,4.9-1.4,8.1-4.2,9.5l0,0l0,0C240.2,333.1,236.2,333.8,231.1,333.8L231.1,333.8z"/>
</svg>
