<svg width="188" height="33" viewBox="0 0 188 33" fill="none" xmlns="http://www.w3.org/2000/svg">
<path d="M55.95 23.265C58.8714 23.265 61.1128 21.905 61.1128 18.9081V18.8577C61.1128 16.3897 58.9217 15.483 57.0329 14.8534C55.5722 14.3498 54.2878 13.9972 54.2878 13.2416V13.1913C54.2878 12.6624 54.7663 12.2595 55.6982 12.2595C56.5041 12.2595 57.5366 12.5869 58.6195 13.1157C58.8714 13.2416 59.0477 13.292 59.3247 13.292C60.1809 13.292 60.8609 12.6372 60.8609 11.781C60.8609 11.1262 60.5083 10.6225 59.9543 10.3455C58.6447 9.69067 57.184 9.31291 55.7737 9.31291C53.0538 9.31291 50.8376 10.8491 50.8376 13.5942V13.6446C50.8376 16.2638 52.9783 17.1452 54.8671 17.6993C56.3529 18.1526 57.6625 18.4296 57.6625 19.2607V19.311C57.6625 19.9155 57.1588 20.3184 56.0507 20.3184C54.9678 20.3184 53.6834 19.9155 52.399 19.1096C52.1976 18.9836 51.9205 18.9081 51.6435 18.9081C50.7872 18.9081 50.1324 19.5629 50.1324 20.4192C50.1324 21.0236 50.4598 21.4769 50.8628 21.7287C52.4998 22.7865 54.2878 23.265 55.95 23.265Z" fill="#09161D"/>
<path d="M68.1691 23.2398C69.0001 23.2398 69.6549 23.139 70.3601 22.862C70.889 22.6605 71.3423 22.1065 71.3423 21.4265C71.3423 20.5451 70.6119 19.8399 69.7557 19.8399C69.6801 19.8399 69.4283 19.8651 69.3024 19.8651C68.4461 19.8651 68.0683 19.437 68.0683 18.5555V12.7883H69.7557C70.6623 12.7883 71.3926 12.058 71.3926 11.1514C71.3926 10.2447 70.6623 9.51438 69.7557 9.51438H68.0683V7.82704C68.0683 6.7693 67.2121 5.91304 66.1543 5.91304C65.0966 5.91304 64.2403 6.7693 64.2403 7.82704V9.51438H64.1144C63.2078 9.51438 62.4774 10.2447 62.4774 11.1514C62.4774 12.058 63.2078 12.7883 64.1144 12.7883H64.2403V19.1851C64.2403 22.308 65.8269 23.2398 68.1691 23.2398Z" fill="#09161D"/>
<path d="M74.0632 21.2502C74.0632 22.308 74.9194 23.1642 75.9772 23.1642C77.0349 23.1642 77.8912 22.308 77.8912 21.2502V17.6741C77.8912 14.9542 78.9741 13.4683 80.9133 13.015C81.694 12.8387 82.3488 12.2343 82.3488 11.2269C82.3488 10.144 81.6688 9.36328 80.4851 9.36328C79.3518 9.36328 78.4452 10.5721 77.8912 11.8817V11.2773C77.8912 10.2195 77.0349 9.36328 75.9772 9.36328C74.9194 9.36328 74.0632 10.2195 74.0632 11.2773V21.2502Z" fill="#09161D"/>
<path d="M87.3181 15.206C87.6203 13.4683 88.6529 12.335 90.2395 12.335C91.8513 12.335 92.8586 13.4935 93.0853 15.206H87.3181ZM95.3015 21.6784C95.5785 21.4265 95.8052 21.0488 95.8052 20.5451C95.8052 19.6888 95.1756 19.034 94.3193 19.034C93.9164 19.034 93.6645 19.1348 93.3875 19.3362C92.6068 19.9155 91.7254 20.2429 90.6676 20.2429C88.9551 20.2429 87.7462 19.3362 87.3685 17.5985H94.9489C95.9563 17.5985 96.737 16.8682 96.737 15.7601C96.737 12.9646 94.7475 9.26254 90.2395 9.26254C86.3107 9.26254 83.5657 12.4358 83.5657 16.2889V16.3393C83.5657 20.4695 86.5626 23.3153 90.6172 23.3153C92.5816 23.3153 94.1179 22.6857 95.3015 21.6784Z" fill="#09161D"/>
<path d="M103.493 23.265C105.357 23.265 106.641 22.585 107.573 21.5524V21.5776C107.573 22.3835 108.304 23.1642 109.412 23.1642C110.444 23.1642 111.275 22.3583 111.275 21.3258V15.1808C111.275 13.3676 110.822 11.8817 109.815 10.8743C108.858 9.91733 107.347 9.36328 105.256 9.36328C103.468 9.36328 102.159 9.61512 100.95 10.0684C100.345 10.2951 99.9173 10.8743 99.9173 11.5543C99.9173 12.4358 100.622 13.1157 101.504 13.1157C101.68 13.1157 101.831 13.0905 102.058 13.015C102.788 12.7883 103.645 12.6372 104.702 12.6372C106.616 12.6372 107.598 13.5187 107.598 15.1053V15.3319C106.641 15.0045 105.659 14.7779 104.299 14.7779C101.101 14.7779 98.8596 16.1378 98.8596 19.0844V19.1348C98.8596 21.8043 100.95 23.265 103.493 23.265ZM104.652 20.6206C103.418 20.6206 102.562 20.0162 102.562 18.9837V18.9333C102.562 17.7244 103.569 17.0696 105.206 17.0696C106.138 17.0696 106.994 17.2711 107.649 17.5733V18.2533C107.649 19.6384 106.44 20.6206 104.652 20.6206Z" fill="#09161D"/>
<path d="M114.569 21.2502C114.569 22.308 115.426 23.1642 116.483 23.1642C117.541 23.1642 118.397 22.308 118.397 21.2502V15.483C118.397 13.6698 119.279 12.738 120.714 12.738C122.15 12.738 122.956 13.6698 122.956 15.483V21.2502C122.956 22.308 123.812 23.1642 124.87 23.1642C125.927 23.1642 126.784 22.308 126.784 21.2502V15.483C126.784 13.6698 127.665 12.738 129.101 12.738C130.536 12.738 131.342 13.6698 131.342 15.483V21.2502C131.342 22.308 132.198 23.1642 133.256 23.1642C134.314 23.1642 135.17 22.308 135.17 21.2502V14.2238C135.17 10.9751 133.458 9.26254 130.612 9.26254C128.773 9.26254 127.363 10.0181 126.179 11.4032C125.474 10.0433 124.139 9.26254 122.377 9.26254C120.437 9.26254 119.279 10.2951 118.397 11.4284V11.2773C118.397 10.2195 117.541 9.36328 116.483 9.36328C115.426 9.36328 114.569 10.2195 114.569 11.2773V21.2502Z" fill="#09161D"/>
<path d="M138.676 21.2502C138.676 22.308 139.532 23.1642 140.59 23.1642C141.647 23.1642 142.504 22.308 142.504 21.2502V6.39154C142.504 5.3338 141.647 4.47754 140.59 4.47754C139.532 4.47754 138.676 5.3338 138.676 6.39154V21.2502Z" fill="#09161D"/>
<path d="M149.927 23.265C151.79 23.265 153.075 22.585 154.007 21.5524V21.5776C154.007 22.3835 154.737 23.1642 155.845 23.1642C156.878 23.1642 157.709 22.3583 157.709 21.3258V15.1808C157.709 13.3676 157.255 11.8817 156.248 10.8743C155.291 9.91733 153.78 9.36328 151.69 9.36328C149.902 9.36328 148.592 9.61512 147.383 10.0684C146.779 10.2951 146.351 10.8743 146.351 11.5543C146.351 12.4358 147.056 13.1157 147.937 13.1157C148.114 13.1157 148.265 13.0905 148.491 13.015C149.222 12.7883 150.078 12.6372 151.136 12.6372C153.05 12.6372 154.032 13.5187 154.032 15.1053V15.3319C153.075 15.0045 152.093 14.7779 150.733 14.7779C147.534 14.7779 145.293 16.1378 145.293 19.0844V19.1348C145.293 21.8043 147.383 23.265 149.927 23.265ZM151.085 20.6206C149.851 20.6206 148.995 20.0162 148.995 18.9837V18.9333C148.995 17.7244 150.002 17.0696 151.639 17.0696C152.571 17.0696 153.427 17.2711 154.082 17.5733V18.2533C154.082 19.6384 152.873 20.6206 151.085 20.6206Z" fill="#09161D"/>
<path d="M161.003 21.2502C161.003 22.308 161.859 23.1642 162.917 23.1642C163.975 23.1642 164.831 22.308 164.831 21.2754V21.2502C165.737 22.3331 166.997 23.265 169.037 23.265C172.235 23.265 175.181 20.7969 175.181 16.2889V16.2386C175.181 11.7306 172.185 9.26254 169.037 9.26254C167.047 9.26254 165.763 10.1944 164.831 11.4536V6.39154C164.831 5.3338 163.975 4.47754 162.917 4.47754C161.859 4.47754 161.003 5.3338 161.003 6.39154V21.2502ZM168.054 20.0162C166.266 20.0162 164.78 18.5303 164.78 16.2889V16.2386C164.78 13.9972 166.266 12.5113 168.054 12.5113C169.842 12.5113 171.354 13.9972 171.354 16.2386V16.2889C171.354 18.5555 169.842 20.0162 168.054 20.0162Z" fill="#09161D"/>
<path d="M182.732 23.265C185.653 23.265 187.895 21.905 187.895 18.9081V18.8577C187.895 16.3897 185.704 15.483 183.815 14.8534C182.354 14.3498 181.07 13.9972 181.07 13.2416V13.1913C181.07 12.6624 181.548 12.2595 182.48 12.2595C183.286 12.2595 184.318 12.5869 185.401 13.1157C185.653 13.2416 185.829 13.292 186.107 13.292C186.963 13.292 187.643 12.6372 187.643 11.781C187.643 11.1262 187.29 10.6225 186.736 10.3455C185.427 9.69067 183.966 9.31291 182.556 9.31291C179.836 9.31291 177.619 10.8491 177.619 13.5942V13.6446C177.619 16.2638 179.76 17.1452 181.649 17.6993C183.135 18.1526 184.444 18.4296 184.444 19.2607V19.311C184.444 19.9155 183.941 20.3184 182.833 20.3184C181.75 20.3184 180.465 19.9155 179.181 19.1096C178.979 18.9836 178.702 18.9081 178.425 18.9081C177.569 18.9081 176.914 19.5629 176.914 20.4192C176.914 21.0236 177.242 21.4769 177.645 21.7287C179.282 22.7865 181.07 23.265 182.732 23.265Z" fill="#09161D"/>
<path fill-rule="evenodd" clip-rule="evenodd" d="M39.9474 11.4769V17.9327C39.9474 20.3096 38.0311 22.2365 35.6673 22.2365H33.5273V24.6754C33.5273 26.6562 31.9304 28.2619 29.9605 28.2619H18.3921C18.3542 28.2619 18.3179 28.2771 18.2912 28.304L13.8735 32.7462C13.3343 33.2884 12.4122 32.9044 12.4122 32.1375V28.4054C12.4122 28.3262 12.3483 28.2619 12.2695 28.2619H9.98684C8.01699 28.2619 6.42011 26.6562 6.42011 24.6754V22.2365H4.28008C1.91625 22.2365 0 20.3096 0 17.9327V11.4769C0 9.09998 1.91625 7.17308 4.28008 7.17308V6.31231C4.28008 2.82612 7.09058 0 10.5575 0H29.3899C32.8568 0 35.6673 2.82612 35.6673 6.31231V7.17308C38.0311 7.17308 39.9474 9.09998 39.9474 11.4769ZM8.56015 6.31231C8.56015 5.20307 9.45441 4.30385 10.5575 4.30385H29.3899C30.493 4.30385 31.3872 5.20307 31.3872 6.31231V7.17308H8.56015V6.31231ZM19.9737 18.0762L18.9389 21.429C18.7907 21.9092 18.3489 22.2365 17.8488 22.2365H8.56015V24.6754C8.56015 25.4677 9.19889 26.11 9.98684 26.11H13.8389C14.2329 26.11 14.5523 26.4312 14.5523 26.8273V29.0204L17.2376 26.3201C17.3714 26.1856 17.5528 26.11 17.742 26.11H29.9605C30.7485 26.11 31.3872 25.4677 31.3872 24.6754V22.2365H22.0985C21.5985 22.2365 21.1567 21.9092 21.0085 21.429L19.9737 18.0762ZM2.85335 11.4769C2.85335 10.6846 3.49209 10.0423 4.28005 10.0423V8.60767C2.70417 8.60767 1.42666 9.89227 1.42666 11.4769V17.9327C1.42666 18.3288 1.74603 18.65 2.14001 18.65C2.53398 18.65 2.85335 18.3288 2.85335 17.9327V11.4769ZM37.094 11.4769C37.094 10.6846 36.4552 10.0423 35.6673 10.0423V8.60767C37.2431 8.60767 38.5206 9.89227 38.5206 11.4769V17.9327C38.5206 18.3288 38.2013 18.65 37.8073 18.65C37.4133 18.65 37.094 18.3288 37.094 17.9327V11.4769ZM6.42008 9.32503H33.5272V17.9327C33.5272 19.1212 32.5691 20.0847 31.3872 20.0847H22.7514C22.6266 20.0847 22.5163 20.0031 22.4791 19.8834L21.063 15.3301C20.7291 14.2566 19.2182 14.2566 18.8843 15.3301L17.4682 19.8834C17.431 20.0031 17.3207 20.0847 17.1959 20.0847H8.56012C7.37821 20.0847 6.42008 19.1212 6.42008 17.9327V9.32503Z" fill="#09161D"/>
<path fill-rule="evenodd" clip-rule="evenodd" d="M12.8402 10.7596C11.2644 10.7596 9.98684 12.0442 9.98684 13.6289V15.7808C9.98684 17.3655 11.2644 18.65 12.8402 18.65C14.4161 18.65 15.6936 17.3655 15.6936 15.7808V13.6289C15.6936 12.0442 14.4161 10.7596 12.8402 10.7596ZM11.4803 12.3982C11.2611 12.6504 11.1282 12.9806 11.1282 13.342C11.1282 14.1343 11.7669 14.7766 12.5549 14.7766C12.9489 14.7766 13.3055 14.616 13.5637 14.3564C13.6591 14.2604 13.7411 14.1509 13.8065 14.031C13.9181 13.8265 13.9816 13.5917 13.9816 13.3419C13.9816 12.5496 13.3429 11.9073 12.5549 11.9073C12.1263 11.9073 11.7418 12.0973 11.4803 12.3982Z" fill="#09161D"/>
<path fill-rule="evenodd" clip-rule="evenodd" d="M27.1071 10.7596C25.5313 10.7596 24.2538 12.0442 24.2538 13.6289V15.7808C24.2538 17.3655 25.5313 18.65 27.1071 18.65C28.683 18.65 29.9605 17.3655 29.9605 15.7808V13.6289C29.9605 12.0442 28.683 10.7596 27.1071 10.7596ZM25.5506 12.6899C25.4512 12.8856 25.3951 13.1072 25.3951 13.342C25.3951 14.1343 26.0339 14.7766 26.8218 14.7766C27.2158 14.7766 27.5725 14.616 27.8306 14.3564C27.9949 14.1912 28.1194 13.9858 28.1881 13.7562C28.2274 13.6251 28.2485 13.486 28.2485 13.3419C28.2485 12.5496 27.6098 11.9073 26.8218 11.9073C26.4278 11.9073 26.0712 12.0679 25.813 12.3275C25.7078 12.4333 25.619 12.5555 25.5506 12.6899Z" fill="#09161D"/>
</svg>
