<?xml version="1.0" encoding="utf-8"?>
<svg version="1.1" id="Ebene_1" xmlns="http://www.w3.org/2000/svg" xmlns:xlink="http://www.w3.org/1999/xlink" x="0px" y="0px"
	 viewBox="0 0 992 672" style="enable-background:new 0 0 992 672;" xml:space="preserve">
<style type="text/css">
	.st0{fill-rule:evenodd;clip-rule:evenodd;}
</style>
<g id="Threema-Logo">
	<g id="Threema:-Wortmarke-_x2B_-Bildmarke-_x2B_-Claim-_x28_Portrait_x29_" transform="translate(-370.000000, -176.000000)">
		<path class="st0" d="M686.673,795.181l4.68,13.728l3.045,9.023l1.308,3.913c0.767,2.308,1.492,4.517,2.121,6.486l0.545-1.578
			l0.977-2.864c1.339-3.947,2.807-8.347,4.199-12.462l0.909-2.674l4.68-13.572h5.226l-15.366,43.368
			c-2.184,6.162-4.056,9.282-10.608,9.282c-1.456,0-3.097-0.185-4.539-0.5l-0.531-0.124l0.858-4.056
			c1.56,0.312,2.808,0.468,3.9,0.468c3.13,0,4.691-1.345,6.438-6.228l0.114-0.324l0.702-2.106l-14.118-39.78H686.673z
			 M1292.353,794.167c5.952,0,10.187,2.613,12.705,6.962l0.165,0.292v-6.24h4.836v37.284c0,9.438-6.084,15.288-16.458,15.288
			c-6.284,0-11.538-1.984-16.264-5.239l-0.428-0.299l2.652-3.822l0.817,0.516c4.195,2.618,8.021,4.476,13.223,4.476
			c6.146,0,11.232-3.102,11.385-10.945l0.003-0.365v-6.24c-2.574,4.29-6.786,6.786-12.636,6.786
			c-9.906,0-16.458-8.112-16.458-19.188C1275.895,802.279,1282.447,794.167,1292.353,794.167z M1194.282,794.167
			c5.952,0,10.187,2.613,12.705,6.962l0.165,0.292v-6.24h4.836v37.284c0,9.438-6.084,15.288-16.458,15.288
			c-6.284,0-11.538-1.984-16.264-5.239l-0.428-0.299l2.652-3.822l0.817,0.516l0.808,0.497c3.886,2.353,7.548,3.979,12.415,3.979
			c6.146,0,11.232-3.102,11.385-10.945l0.004-0.365v-6.24c-2.574,4.29-6.786,6.786-12.636,6.786
			c-9.906,0-16.458-8.112-16.458-19.188C1177.824,802.279,1184.376,794.167,1194.282,794.167z M1155.066,794.167
			c9.461,0,14.75,4.93,14.895,11.873l0.003,0.295v26.52h-4.758v-4.992c-2.652,4.212-7.566,6.162-13.104,6.162
			c-7.41,0-13.494-2.964-13.494-10.374c0-8.68,7.953-11.191,17.475-12.975l0.699-0.129l8.19-1.482v-2.34
			c0-5.382-3.978-8.346-9.672-8.346c-4.497,0-7.877,1.564-12.397,6.222l-0.317,0.33l-3.276-2.964
			C1143.99,796.507,1148.982,794.167,1155.066,794.167z M442.363,776.305c7.859,0,13.778,2.389,19.946,7.531l0.412,0.347
			l-3.198,3.822c-6.006-5.226-10.998-6.942-17.082-6.942c-8.19,0-13.806,4.212-13.806,9.984c0,6.552,5.538,8.112,15.912,10.452
			l0.933,0.222l0.907,0.225c12.358,3.134,17.114,7.202,17.114,15.387c0,10.218-8.424,16.692-19.734,16.692
			c-8.645,0-14.813-2.626-22.332-8.835l-0.444-0.369l3.198-3.9l0.861,0.694c8.074,6.414,13.141,7.652,18.717,7.652
			c8.19,0,14.274-4.368,14.274-11.778c0-7.41-6.24-9.126-16.146-11.388l-0.912-0.208l-0.886-0.209
			c-12.218-2.934-16.766-6.291-16.766-14.481C423.331,781.843,432.379,776.305,442.363,776.305z M646.07,794.167
			c5.924,0,10.073,1.405,14.823,5.079l0.387,0.303l-2.886,3.51c-5.07-3.822-7.956-4.68-12.168-4.68
			c-5.694,0-9.204,2.808-9.204,6.552c0,3.259,2.897,4.299,8.525,5.64l3.11,0.725l0.843,0.206c8.42,2.116,12.404,4.825,12.404,10.901
			c0,6.942-6.006,11.466-14.664,11.466c-6.406,0-10.799-1.715-16.533-6.604l-0.393-0.338l3.12-3.432
			c5.616,4.758,9.126,6.084,13.806,6.084c5.46,0,9.594-2.652,9.594-6.942c0-4.68-4.836-6.084-11.232-7.41l-0.863-0.191l-0.819-0.189
			c-8.444-1.984-11.889-4.115-11.889-9.76C632.03,798.457,638.036,794.167,646.07,794.167z M599.132,795.181v25.116
			c0,6.006,3.198,9.126,8.658,9.126c5.834,0,10.761-3.551,10.916-10.8l0.004-0.354v-23.088h5.148v37.674h-4.836v-4.992
			c-2.418,4.134-6.864,6.006-11.544,6.006c-9.62,0-13.393-5.543-13.492-12.209l-0.002-0.271v-26.208H599.132z M827.08,794.167
			c6.181,0,10.271,1.941,14.535,6.845l0.285,0.331l-3.51,3.042c-4.212-4.68-7.41-6.006-11.466-6.006
			c-8.346,0-12.246,7.956-12.246,15.678s3.9,15.444,12.48,15.444c4.12,0,6.897-1.269,11.397-6.144l0.303-0.33l3.432,2.886
			c-4.836,6.006-9.126,7.956-15.054,7.956c-10.998,0-17.862-7.956-17.862-19.812S816.394,794.167,827.08,794.167z M568.184,794.167
			c10.842,0,18.252,8.112,18.252,19.89c0,11.7-7.41,19.812-18.252,19.812c-10.764,0-18.174-8.112-18.174-19.812
			C550.01,802.279,557.42,794.167,568.184,794.167z M853.582,795.181v25.116c0,6.006,3.198,9.126,8.658,9.126
			c5.834,0,10.761-3.551,10.916-10.8l0.004-0.354v-23.088h5.148v37.674h-4.836v-4.992c-2.418,4.134-6.864,6.006-11.544,6.006
			c-9.62,0-13.393-5.543-13.492-12.209l-0.002-0.271v-26.208H853.582z M787.239,794.167c10.53,0,16.692,7.02,16.692,17.862
			l-0.007,0.362c-0.018,0.559-0.07,1.377-0.126,1.871l-0.023,0.186h-28.86c0.234,7.644,3.9,15.132,12.87,15.132
			c4.955,0,8.047-1.788,12.699-6.529l0.327-0.336l3.276,3.12c-5.538,6.006-10.14,8.034-16.302,8.034
			c-11.154,0-18.096-7.878-18.096-19.578C769.689,802.435,776.631,794.167,787.239,794.167z M926.866,794.167
			c10.53,0,16.692,7.02,16.692,17.862l-0.007,0.362c-0.018,0.559-0.07,1.377-0.126,1.871l-0.023,0.186h-28.86
			c0.234,7.644,3.9,15.132,12.87,15.132c4.955,0,8.047-1.788,12.699-6.529l0.327-0.336l3.276,3.12
			c-5.538,6.006-10.14,8.034-16.302,8.034c-11.154,0-18.096-7.878-18.096-19.578C909.316,802.435,916.258,794.167,926.866,794.167z
			 M1116.864,794.167c5.924,0,10.073,1.405,14.823,5.079l0.387,0.303l-2.886,3.51c-5.07-3.822-7.956-4.68-12.168-4.68
			c-5.694,0-9.204,2.808-9.204,6.552c0,3.462,3.27,4.42,9.613,5.896l1.151,0.266c9.594,2.184,14.118,4.836,14.118,11.31
			c0,6.942-6.006,11.466-14.664,11.466c-6.406,0-10.799-1.715-16.533-6.604l-0.393-0.338l3.12-3.432
			c5.616,4.758,9.126,6.084,13.806,6.084c5.46,0,9.594-2.652,9.594-6.942c0-4.68-4.836-6.084-11.232-7.41l-0.863-0.191l-0.819-0.189
			c-8.444-1.984-11.889-4.115-11.889-9.76C1102.824,798.457,1108.83,794.167,1116.864,794.167z M486.961,794.167
			c10.41,0,16.551,6.861,16.69,17.494l0.002,0.368c0,0.491-0.063,1.615-0.133,2.232l-0.023,0.186h-28.86
			c0.234,7.644,3.9,15.132,12.87,15.132c4.955,0,8.047-1.788,12.699-6.529l0.327-0.336l3.276,3.12
			c-5.538,6.006-10.14,8.034-16.302,8.034c-11.154,0-18.096-7.878-18.096-19.578C469.411,802.435,476.353,794.167,486.961,794.167z
			 M748.725,794.167c5.924,0,10.073,1.405,14.823,5.079l0.387,0.303l-2.886,3.51c-5.07-3.822-7.956-4.68-12.168-4.68
			c-5.694,0-9.204,2.808-9.204,6.552c0,3.259,2.897,4.299,8.525,5.64l3.11,0.725l0.842,0.206c8.42,2.116,12.404,4.825,12.404,10.901
			c0,6.942-6.006,11.466-14.664,11.466c-6.406,0-10.799-1.715-16.533-6.604l-0.393-0.338l3.12-3.432
			c5.616,4.758,9.126,6.084,13.806,6.084c5.46,0,9.594-2.652,9.594-6.942c0-4.68-4.836-6.084-11.232-7.41l-0.863-0.191l-0.819-0.189
			c-8.444-1.984-11.889-4.115-11.889-9.76C734.685,798.457,740.691,794.167,748.725,794.167z M1044.593,794.167
			c10.53,0,16.692,7.02,16.692,17.862l-0.009,0.409c-0.02,0.557-0.07,1.343-0.124,1.824l-0.023,0.186h-28.86
			c0.234,7.644,3.9,15.132,12.87,15.132c4.955,0,8.047-1.788,12.699-6.529l0.327-0.336l3.276,3.12
			c-5.538,6.006-10.14,8.034-16.302,8.034c-11.154,0-18.096-7.878-18.096-19.578
			C1027.043,802.435,1033.985,794.167,1044.593,794.167z M1081.547,794.167c5.924,0,10.073,1.405,14.823,5.079l0.387,0.303
			l-2.886,3.51c-5.07-3.822-7.956-4.68-12.168-4.68c-5.694,0-9.204,2.808-9.204,6.552c0,3.259,2.897,4.299,8.526,5.64l3.11,0.725
			l0.843,0.206c8.42,2.116,12.404,4.825,12.404,10.901c0,6.942-6.006,11.466-14.664,11.466c-6.406,0-10.799-1.715-16.533-6.604
			l-0.393-0.338l3.12-3.432c5.616,4.758,9.126,6.084,13.806,6.084c5.46,0,9.594-2.652,9.594-6.942c0-4.68-4.836-6.084-11.232-7.41
			l-0.864-0.191c-9.041-2.041-12.708-4.125-12.708-9.949C1067.507,798.457,1073.513,794.167,1081.547,794.167z M1254.541,794.167
			c9.232,0,13.38,5.918,13.492,12.592l0.002,0.279v25.818h-5.148v-24.102c0-6.864-3.432-10.296-9.516-10.296
			c-5.832,0-10.532,4.53-10.682,10.396l-0.004,0.29v23.712h-5.148v-37.674h4.836v5.226
			C1244.947,796.039,1249.393,794.167,1254.541,794.167z M902.704,794.791c2.194,0,4.182,0.48,5.643,0.99l0.285,0.102l-1.014,4.134
			c-1.872-0.546-3.354-0.78-4.914-0.78c-4.99,0-8.921,4.306-9.045,12.249l-0.003,0.387v20.982h-5.148v-37.674h4.836v5.85
			C895.06,797.209,898.336,794.791,902.704,794.791z M1227.336,795.181v37.674h-5.148v-37.674H1227.336z M674.756,777.475v55.38
			h-5.148v-55.38H674.756z M542.305,795.181v37.674h-5.148v-37.674H542.305z M1006.937,794.167c8.377,0,12.438,5.376,12.555,12.1
			l0.003,0.302v26.286h-5.148v-24.882c0-6.084-2.808-9.516-8.346-9.516c-5.521,0-9.383,4.146-9.513,10.14l-0.003,0.312v23.946
			h-5.148v-24.882c0-6.084-2.808-9.516-8.346-9.516c-5.061,0-9.292,3.618-9.434,10.113l-0.004,0.339v23.946h-5.148v-37.674h4.836
			v4.758c2.262-3.9,5.928-5.772,10.92-5.772c5.616,0,9.282,2.73,10.998,6.552C997.577,796.819,1001.399,794.167,1006.937,794.167z
			 M525.787,794.791c2.194,0,4.182,0.48,5.643,0.99l0.285,0.102l-1.014,4.134c-1.872-0.546-3.354-0.78-4.914-0.78
			c-4.99,0-8.921,4.306-9.045,12.249l-0.003,0.387v20.982h-5.148v-37.674h4.836v5.85
			C518.143,797.209,521.419,794.791,525.787,794.791z M1164.972,813.043l-7.098,1.404l-1.486,0.302
			c-7.42,1.536-12.71,3.188-12.71,8.824c0,3.9,3.276,6.162,8.658,6.162c7.219,0,12.472-4.159,12.632-10.094l0.004-0.28V813.043z
			 M568.184,798.379c-7.878,0-12.87,6.474-12.87,15.678c0,9.048,4.992,15.522,12.87,15.522c7.956,0,12.948-6.474,12.948-15.522
			C581.132,804.853,576.14,798.379,568.184,798.379z M1194.828,798.457c-7.566,0-11.7,6.318-11.7,14.976
			c0,8.58,4.134,14.82,11.7,14.82c7.41,0,12.168-6.24,12.168-14.82C1206.996,804.775,1202.238,798.457,1194.828,798.457z
			 M1292.899,798.457c-7.566,0-11.7,6.318-11.7,14.976c0,8.58,4.134,14.82,11.7,14.82c7.41,0,12.168-6.24,12.168-14.82
			C1305.067,804.775,1300.309,798.457,1292.899,798.457z M486.961,798.379c-6.523,0-11.083,3.926-12.12,11.779l-0.048,0.389h23.712
			C498.271,803.293,494.137,798.379,486.961,798.379z M787.239,798.379c-6.523,0-11.083,3.926-12.12,11.779l-0.048,0.389h23.712
			C798.549,803.293,794.415,798.379,787.239,798.379z M926.866,798.379c-6.523,0-11.083,3.926-12.12,11.779l-0.048,0.389h23.712
			C938.176,803.293,934.042,798.379,926.866,798.379z M1044.593,798.379c-6.523,0-11.083,3.926-12.12,11.779l-0.048,0.389h23.712
			C1055.903,803.293,1051.769,798.379,1044.593,798.379z M1227.336,779.503v7.332h-5.148v-7.332H1227.336z M542.305,779.503v7.332
			h-5.148v-7.332H542.305z M1254.393,590.065c36.383,0,55.123,18.377,55.494,44.943l0.006,0.807v86.25h-29.25v-13.25
			c-7.75,10.75-21.5,17.5-41.25,17.5c-24.25,0-45.75-10.5-45.75-36.5c0-29.205,25.728-39.543,54.381-44.841l30.869-5.659v-3
			c0-12.5-9.25-19.5-24-19.5c-16.293,0-25.218,6.935-37.065,18.181l-2.685,2.569l-20.5-18.75
			C1210.643,599.815,1229.143,590.065,1254.393,590.065z M795.921,590.065c39,0,59.75,24.5,59.75,63.75l-0.008,1.35l-0.024,1.449
			l-0.037,1.509c-0.082,2.884-0.227,5.882-0.378,7.816l-0.053,0.626h-91.75c2.75,18.5,13.75,32,36,32
			c14.81,0,22.796-4.874,37.434-17.029l0.566-0.471l18.25,20c-18.75,19-36.25,25-57,25c-41.25,0-67-26.5-67-67.25
			C731.671,619.315,755.671,590.065,795.921,590.065z M927.579,590.065c39,0,59.75,24.5,59.75,63.75l-0.003,0.854l-0.02,1.489
			l-0.033,1.492l-0.029,1.016c-0.084,2.718-0.221,5.473-0.363,7.285l-0.052,0.614h-91.75c2.75,18.5,13.75,32,36,32
			c14.81,0,22.796-4.874,37.434-17.029l0.566-0.471l18.25,20c-18.75,19-36.25,25-57,25c-41.25,0-67-26.5-67-67.25
			C863.329,619.315,887.329,590.065,927.579,590.065z M714.514,592.565c6.75,0,12.57,1.395,19.478,3.512l0.772,0.238l-5.75,28.5
			c-6.75-1.75-12-2.5-16.25-2.5c-17.078,0-27.784,13.476-27.997,36.063l-0.003,0.687v63h-32.5v-127.75h30.25v18.75
			C688.514,600.815,698.764,592.565,714.514,592.565z M1361.55,685.815v36.25h-35.5v-36.25H1361.55z M555.357,544.565v61.25
			c8-9.75,20.25-15.75,36.25-15.75c29.453,0,45.429,18.132,45.745,43.722l0.005,0.778v87.5h-32.5v-77.75
			c0-16.75-8.25-26.25-23.75-26.25c-14.85,0-25.535,10.781-25.747,26.521l-0.003,0.479v77h-32.5v-177.5H555.357z M512.45,544.565v30
			h-53.5v147.5h-35v-147.5h-53.5v-30H512.45z M1139.986,590.065c27.225,0,42.199,16.417,42.495,41.973l0.005,0.777v89.25h-32.5
			v-79.5c0-14.25-5.5-24.5-20.25-24.5c-14.603,0-22.344,10.781-22.498,25.066l-0.002,0.434v78.5h-32.5v-79.5
			c0-14.25-5.25-24.5-20.25-24.5c-14.603,0-22.344,11.026-22.498,25.073l-0.002,0.427v78.5h-32.5v-127.75h30.25v14.25
			c6.75-11,18.5-18.5,36.5-18.5c16.75,0,28.75,7,35.5,18.75C1109.236,598.065,1121.236,590.065,1139.986,590.065z M1278.893,662.565
			l-22.647,4.741l-1.109,0.237l-1.602,0.352c-17.077,3.821-28.142,8.491-28.142,19.67c0,8,7.25,12.75,19.5,12.75
			c16.335,0,33.65-7.841,33.995-29.587l0.005-0.663V662.565z M926.579,615.565c-17.077,0-27.049,11.026-30.643,27.257l-0.107,0.493
			h59.75C954.329,626.315,944.329,615.565,926.579,615.565z M794.921,615.565c-17.078,0-27.049,11.026-30.643,27.257l-0.107,0.493
			h59.75C822.671,626.315,812.671,615.565,794.921,615.565z M951.301,452.057c13.08,0,23.66,10.604,23.66,23.655
			c0,13.076-10.581,23.664-23.66,23.664c-13.057,0-23.638-10.588-23.638-23.664C927.663,462.661,938.244,452.057,951.301,452.057z
			 M780.656,452.057c13.08,0,23.66,10.604,23.66,23.655c0,13.076-10.581,23.664-23.66,23.664c-13.058,0-23.638-10.588-23.638-23.664
			C757.018,462.661,767.598,452.057,780.656,452.057z M865.979,452.057c13.08,0,23.66,10.604,23.66,23.655
			c0,13.076-10.581,23.664-23.66,23.664c-13.058,0-23.638-10.588-23.638-23.664C842.34,462.661,852.921,452.057,865.979,452.057z
			 M866,176.169c76.768,0,139,54.761,139,122.312s-62.232,122.312-139,122.312c-21.848,0-42.519-4.436-60.914-12.339l-69.637,17.409
			l14.882-59.529C735.593,346.918,727,323.582,727,298.481C727,230.93,789.232,176.169,866,176.169z M865.982,233.206
			c-21.772,0-39.414,17.648-39.414,39.373v15.749h-1.549c-3.5,0-6.337,2.837-6.337,6.337v55.571c0,3.5,2.837,6.337,6.337,6.337
			h81.964c3.5,0,6.337-2.837,6.337-6.337v-55.571c0-3.5-2.837-6.337-6.337-6.337h-1.549v-15.749
			C905.433,250.853,887.791,233.206,865.982,233.206z M865.989,248.955c13.085,0,23.671,10.591,23.671,23.626v15.746H842.34v-15.746
			C842.34,259.546,852.926,248.955,865.989,248.955z"/>
	</g>
</g>
</svg>
