<?xml version="1.0" encoding="UTF-8" standalone="no"?>
<svg
   xmlns:dc="http://purl.org/dc/elements/1.1/"
   xmlns:cc="http://creativecommons.org/ns#"
   xmlns:rdf="http://www.w3.org/1999/02/22-rdf-syntax-ns#"
   xmlns:svg="http://www.w3.org/2000/svg"
   xmlns="http://www.w3.org/2000/svg"
   xmlns:sodipodi="http://sodipodi.sourceforge.net/DTD/sodipodi-0.dtd"
   xmlns:inkscape="http://www.inkscape.org/namespaces/inkscape"
   id="Layer_1"
   width="72.21521"
   height="76.206917"
   inkscape:version="1.0.1 (3bc2e813f5, 2020-09-07)"
   sodipodi:docname="Viber_logo_2018_(without_text).svg"
   viewBox="0 0 72.214497 76.209872"
   version="1.1">
  <metadata
     id="metadata104">
    <rdf:RDF>
      <cc:Work
         rdf:about="">
        <dc:format>image/svg+xml</dc:format>
        <dc:type
           rdf:resource="http://purl.org/dc/dcmitype/StillImage" />
        <dc:title />
      </cc:Work>
    </rdf:RDF>
  </metadata>
  <defs
     id="defs102" />
  <sodipodi:namedview
     bordercolor="#666666"
     borderopacity="1"
     gridtolerance="10"
     guidetolerance="10"
     inkscape:current-layer="g82"
     inkscape:cx="22.53302"
     inkscape:cy="45.107771"
     inkscape:pageopacity="0"
     inkscape:pageshadow="2"
     inkscape:window-height="1009"
     inkscape:window-maximized="1"
     inkscape:window-width="1920"
     inkscape:window-x="1912"
     inkscape:window-y="-8"
     inkscape:zoom="8"
     objecttolerance="10"
     pagecolor="#ffffff"
     showgrid="false"
     id="namedview58"
     inkscape:document-rotation="0"
     fit-margin-top="0"
     fit-margin-left="0"
     fit-margin-right="0"
     fit-margin-bottom="0" />
  <g
     id="g84"
     transform="translate(-429.26705,-345.04681)">
    <g
       id="g82">
      <path
         id="path72"
         d="m 493.4,352.5 c -1.9,-1.7 -9.5,-7.3 -26.6,-7.4 0,0 -20.1,-1.2 -29.9,7.8 -5.5,5.5 -7.4,13.4 -7.6,23.3 -0.2,9.9 -0.5,28.4 17.4,33.5 v 7.7 c 0,0 -0.1,3.1 1.9,3.7 2.5,0.8 3.9,-1.6 6.3,-4.1 1.3,-1.4 3.1,-3.4 4.4,-5 12.2,1 21.6,-1.3 22.7,-1.7 2.5,-0.8 16.4,-2.6 18.7,-21.1 2.4,-19.2 -1,-31.3 -7.3,-36.7 z m 2.1,35.2 c -1.9,15.5 -13.2,16.5 -15.3,17.1 -0.9,0.3 -9.1,2.3 -19.5,1.7 0,0 -7.7,9.3 -10.2,11.8 -0.4,0.4 -0.8,0.5 -1.1,0.5 -0.4,-0.1 -0.5,-0.6 -0.5,-1.3 0,-1 0.1,-12.8 0.1,-12.8 -15.1,-4.2 -14.2,-20 -14.1,-28.3 0.2,-8.3 1.7,-15 6.3,-19.6 8.3,-7.5 25.4,-6.4 25.4,-6.4 14.4,0.1 21.3,4.4 22.9,5.9 5.2,4.6 7.9,15.5 6,31.4 z"
         fill="#665ca7"
         inkscape:connector-curvature="0"
         style="fill:#7360f2;fill-opacity:1" />
      <path
         id="path74"
         d="m 473.8,375.8 c -0.2,-3.8 -2.1,-5.8 -5.8,-6"
         fill="none"
         stroke="#665ca7"
         stroke-linecap="round"
         stroke-linejoin="round"
         stroke-width="1.927"
         inkscape:connector-curvature="0"
         style="stroke:#7360f2;stroke-opacity:1" />
      <path
         id="path76"
         d="m 478.8,377.4 c 0.1,-3.5 -1,-6.5 -3.1,-8.8 -2.2,-2.4 -5.2,-3.7 -9,-4"
         fill="none"
         stroke="#665ca7"
         stroke-linecap="round"
         stroke-linejoin="round"
         stroke-width="1.927"
         inkscape:connector-curvature="0"
         style="stroke:#7360f2;stroke-opacity:1" />
      <path
         id="path78"
         d="m 483.8,379.4 c 0,-6.1 -1.9,-10.9 -5.5,-14.4 -3.6,-3.5 -8.1,-5.3 -13.5,-5.3"
         fill="none"
         stroke="#665ca7"
         stroke-linecap="round"
         stroke-linejoin="round"
         stroke-width="1.927"
         inkscape:connector-curvature="0"
         style="stroke:#7360f2;stroke-opacity:1" />
      <path
         id="path80"
         d="m 468.2,388.7 c 0,0 1.4,0.1 2.1,-0.8 l 1.4,-1.8 c 0.7,-0.9 2.3,-1.5 4,-0.6 0.9,0.5 2.5,1.5 3.5,2.3 1.1,0.8 3.3,2.6 3.3,2.6 1.1,0.9 1.3,2.2 0.6,3.6 -0.7,1.3 -1.7,2.5 -3,3.6 -1,0.9 -2,1.3 -3,1.5 h -0.4 c -0.4,0 -0.9,-0.1 -1.3,-0.2 -1.5,-0.4 -4,-1.5 -8.3,-3.8 -2.7,-1.5 -5,-3.1 -6.9,-4.6 -1,-0.8 -2.1,-1.7 -3.1,-2.8 l -0.4,-0.4 c -1.1,-1.1 -2,-2.1 -2.8,-3.1 -1.5,-1.9 -3.1,-4.2 -4.6,-6.9 -2.3,-4.2 -3.4,-6.7 -3.8,-8.3 -0.1,-0.4 -0.2,-0.8 -0.2,-1.3 v -0.4 c 0.1,-1 0.6,-2 1.5,-3 1.1,-1.2 2.3,-2.2 3.6,-3 1.4,-0.7 2.7,-0.5 3.6,0.6 0,0 1.8,2.2 2.6,3.3 0.7,1 1.7,2.6 2.3,3.5 0.9,1.6 0.3,3.3 -0.5,4 l -1.8,1.4 c -0.9,0.7 -0.8,2.1 -0.8,2.1 0,0 2.5,9.9 12.4,12.5 z"
         fill="#665ca7"
         inkscape:connector-curvature="0"
         style="fill:#7360f2;fill-opacity:1" />
    </g>
  </g>
</svg>
