<svg xmlns="http://www.w3.org/2000/svg" xmlns:xlink="http://www.w3.org/1999/xlink" version="1.1" width="256" height="256" viewBox="0 0 256 256" xml:space="preserve">
<desc>Created with Fabric.js 1.7.22</desc>
<defs>
</defs>
<g transform="translate(128 128) scale(0.72 0.72)" style="">
	<g style="stroke: none; stroke-width: 0; stroke-dasharray: none; stroke-linecap: butt; stroke-linejoin: miter; stroke-miterlimit: 10; fill: none; fill-rule: nonzero; opacity: 1;" transform="translate(-175.05 -175.05000000000004) scale(3.89 3.89)" >
	<path d="M 13.677 17.774 c -0.782 0 -1.44 0.274 -1.77 0.811 c -0.342 0.555 -0.289 1.269 0.074 1.991 l 8.776 15.193 c 0.015 0.029 0.015 0.047 0 0.074 L 6.966 60.181 c -0.36 0.717 -0.342 1.437 0 1.991 c 0.33 0.534 0.915 0.885 1.696 0.885 h 12.98 c 1.941 0 2.876 -1.31 3.54 -2.508 c 0 0 13.488 -23.854 14.013 -24.78 c -0.053 -0.086 -8.924 -15.561 -8.924 -15.561 c -0.646 -1.151 -1.623 -2.434 -3.614 -2.434 H 13.677 z" style="stroke: none; stroke-width: 1; stroke-dasharray: none; stroke-linecap: butt; stroke-linejoin: miter; stroke-miterlimit: 10; fill: rgb(0,90,95); fill-rule: nonzero; opacity: 1;" transform=" matrix(1 0 0 1 0 0) " stroke-linecap="round" />
	<path d="M 68.208 0 c -1.938 0 -2.779 1.221 -3.475 2.472 c 0 0 -27.963 49.59 -28.884 51.219 c 0.047 0.089 18.444 33.837 18.444 33.837 C 54.936 88.678 55.93 90 57.919 90 h 12.966 c 0.782 0 1.392 -0.295 1.723 -0.829 c 0.345 -0.555 0.336 -1.286 -0.027 -2.006 L 54.281 53.732 c -0.018 -0.027 -0.018 -0.059 0 -0.085 L 83.02 2.832 c 0.36 -0.717 0.369 -1.449 0.027 -2.003 C 82.717 0.295 82.103 0 81.321 0 H 68.208 z" style="stroke: none; stroke-width: 1; stroke-dasharray: none; stroke-linecap: butt; stroke-linejoin: miter; stroke-miterlimit: 10; fill: rgb(212,214,0); fill-rule: nonzero; opacity: 1;" transform=" matrix(1 0 0 1 0 0) " stroke-linecap="round" />
</g>
</g>
</svg>